<?xml version="1.0" encoding="utf-8"?>
<!-- Generator: Adobe Illustrator 21.0.2, SVG Export Plug-In . SVG Version: 6.00 Build 0)  -->
<svg version="1.1" id="レイヤー_1" xmlns="http://www.w3.org/2000/svg" xmlns:xlink="http://www.w3.org/1999/xlink" x="0px"
	 y="0px" viewBox="0 0 780 160" enable-background="new 0 0 780 160" xml:space="preserve">
<g>
	<g>
		<rect fill="#1A1A1A" width="80" height="160"/>
		<rect x="80" fill="#4D4D4D" width="80" height="160"/>
		<g>
			<path fill="#FFFFFF" d="M23.876,22.812H63.98v13.085H38.173v64.336H23.876V22.812z"/>
			<path fill="#FFFFFF" d="M136.124,137.188H95.899v-13.085h25.807V59.766h14.418V137.188z"/>
		</g>
	</g>
	<g>
		<g>
			<path fill="#333333" d="M219.754,133.499c0.679,0.09,0.995,0.135,1.625,0.135c0.226,0,1.581-0.045,2.304-0.09
				c1.67-1.987,2.122-2.574,3.431-4.335c-2.302-2.799-3.477-4.019-6.864-6.908l1.671-2.122c0.993,0.949,1.219,1.129,1.942,1.852
				c2.482-3.747,4.018-6.592,4.47-8.352l2.799,1.264c-0.316,0.451-0.541,0.813-1.039,1.716c-1.309,2.393-2.618,4.47-4.47,7.088
				c1.355,1.354,2.078,2.167,3.027,3.296c3.069-4.425,4.604-6.908,5.191-8.534l2.664,1.58c-0.406,0.541-0.677,0.948-1.309,1.852
				c-3.611,5.463-6.005,8.804-8.353,11.422c3.387-0.225,4.2-0.27,7.315-0.677c-0.677-1.49-0.903-1.942-1.806-3.567l2.078-0.813
				c1.535,2.573,2.753,5.238,3.972,8.579l-2.302,1.038c-0.45-1.444-0.587-1.851-1.039-3.025c-0.496,0.09-0.903,0.135-1.127,0.135
				c-0.362,0.045-1.401,0.181-3.117,0.361v14.854c0,1.942,0.09,3.251,0.272,4.605h-3.297c0.18-1.309,0.27-2.753,0.27-4.65v-14.538
				c-3.341,0.316-3.341,0.316-5.057,0.451c-1.806,0.135-1.85,0.135-2.754,0.316L219.754,133.499z M225.309,139.097
				c-0.813,6.637-1.309,8.714-2.981,12.777l-2.484-1.174c1.671-3.566,2.438-6.637,2.981-12.1L225.309,139.097z M235.558,138.329
				c1.309,4.064,1.896,6.502,2.662,10.746l-2.618,0.858c-0.587-4.469-1.219-7.405-2.302-10.881L235.558,138.329z M243.187,124.063
				c-1.353,2.708-2.799,4.876-4.604,7.043c-0.723-0.768-1.401-1.264-2.348-1.761c2.032-2.213,3.657-4.696,5.057-7.721
				c1.489-3.251,2.168-5.283,2.528-7.45l3.071,0.768c-0.362,0.858-0.362,0.858-1.175,3.115c-0.36,0.994-0.723,1.897-1.309,3.341
				h11.288c1.806,0,2.708-0.045,3.657-0.18c-0.136,1.309-0.136,1.309-0.226,6.953c-0.044,7.088-0.903,15.982-1.942,20.452
				c-1.039,4.335-2.166,5.283-6.502,5.283c-1.309,0-2.979-0.09-4.784-0.271c-0.136-1.219-0.316-1.941-0.769-3.115
				c2.484,0.406,4.2,0.587,6.005,0.587c2.122,0,2.618-0.542,3.251-3.431c1.173-5.148,1.852-13.906,1.942-23.613H243.187z
				 M247.974,142.168c-2.076-5.057-3.251-7.179-6.186-11.198l2.348-1.354c2.935,4.019,4.244,6.321,6.412,11.017L247.974,142.168z"/>
			<path fill="#333333" d="M269.009,125.643c-0.542,2.753-1.039,4.514-2.122,7.223c-0.859-0.632-1.491-0.993-2.484-1.399
				c1.896-4.2,2.845-8.579,2.845-13.049c0-0.496,0-0.632-0.044-1.174l2.889,0.451c-0.09,0.768-0.136,1.129-0.27,2.393
				c-0.182,1.354-0.226,1.987-0.362,2.98h3.251v-5.643c0-1.535-0.09-2.528-0.316-3.747h3.387c-0.226,1.173-0.27,2.167-0.27,3.747
				v5.643h2.076c1.399,0,2.032-0.045,2.799-0.225v2.935c-0.947-0.135-1.67-0.181-2.799-0.181h-2.076v10.069
				c2.032-0.813,2.799-1.129,5.101-2.213v2.709c-2.302,1.084-3.025,1.399-5.101,2.257v11.694c0,1.625,0.09,3.206,0.27,4.74h-3.387
				c0.226-1.444,0.316-2.89,0.316-4.74v-10.61c-4.108,1.49-6.366,2.348-6.772,2.528l-0.903-3.206
				c1.852-0.225,3.974-0.812,7.675-2.122v-11.061H269.009z M292.532,123.746c-1.175,4.38-2.168,6.998-3.883,9.978
				c-2.122,3.657-4.786,6.682-8.263,9.346c-0.587-0.903-1.219-1.535-2.122-2.213c3.703-2.528,6.095-5.057,8.217-8.714
				c1.535-2.618,2.348-4.65,3.341-8.398h-4.064c-1.443,2.799-2.753,4.831-4.874,7.36c-0.859-0.903-1.265-1.219-2.304-1.807
				c2.574-2.799,4.02-4.921,5.555-8.398c1.083-2.393,1.806-4.605,2.212-7.043l3.161,0.678c-0.316,0.722-0.316,0.722-1.219,3.251
				c-0.406,1.128-0.769,2.077-1.355,3.476h13.906c1.942,0,2.979-0.045,3.837-0.181c-0.18,1.219-0.18,1.355-0.316,6.367
				c-0.18,6.817-0.542,13.139-1.039,17.383c-0.857,7.45-1.986,9.03-6.412,9.03c-1.173,0-2.662-0.135-5.101-0.496
				c-0.136-1.219-0.362-2.122-0.813-3.161c2.572,0.633,4.244,0.903,5.913,0.903c1.942,0,2.62-0.858,3.161-4.064
				c0.859-4.966,1.309-12.371,1.491-23.297h-1.988c-0.903,4.47-1.309,6.005-2.302,8.894c-1.762,4.967-4.064,9.211-7.044,12.959
				c-2.438,3.115-4.65,5.102-8.758,8.127c-0.769-1.039-1.219-1.49-2.304-2.213c5.915-3.882,9.843-8.036,12.96-13.815
				c2.302-4.199,3.701-8.262,4.784-13.951H292.532z"/>
			<path fill="#333333" d="M343.373,129.661c2.078,0,3.523-0.09,4.696-0.27v3.16c-1.355-0.18-2.708-0.27-4.696-0.27h-12.281v7.133
				h14.403c2.122,0,3.567-0.09,4.742-0.271v3.206c-1.265-0.18-2.71-0.271-4.742-0.271h-14.403v7.856
				c0,1.897,0.092,3.206,0.316,4.831h-3.657c0.226-1.264,0.316-2.98,0.316-4.876v-7.811h-13.454c-2.032,0-3.477,0.091-4.74,0.271
				v-3.206c1.173,0.181,2.618,0.271,4.74,0.271h13.454v-7.133h-11.242c-1.942,0-3.385,0.09-4.696,0.27v-3.16
				c1.265,0.18,2.664,0.27,4.696,0.27h11.242v-11.062c0-1.896-0.09-3.25-0.316-4.83h3.657c-0.224,1.625-0.316,2.89-0.316,4.83
				v11.062H343.373z M316.149,115.935c3.161,3.567,4.876,5.959,7.224,10.114l-2.528,1.579c-2.62-4.695-4.38-7.088-7.451-10.248
				L316.149,115.935z M345.677,117.335c-3.251,5.193-4.832,7.36-7.677,10.43l-2.482-1.445c3.295-3.476,4.786-5.643,7.405-10.474
				L345.677,117.335z"/>
			<path fill="#333333" d="M386.668,125.055c1.671,0,2.754-0.045,3.657-0.18c-0.136,1.219-0.18,2.212-0.18,3.928v21.627
				c0,2.799-1.219,3.521-5.825,3.521c-0.947,0-2.438-0.045-4.38-0.135c-0.134-1.084-0.27-1.716-0.767-2.845
				c1.986,0.225,4.47,0.406,5.915,0.406c0.406,0,1.263-0.09,1.443-0.135c0.452-0.136,0.679-0.542,0.679-1.265v-6.862h-25.014
				c-0.857,4.425-2.618,7.811-5.733,11.332c-0.677-0.677-1.309-1.083-2.708-1.806c3.025-3.116,4.334-5.328,5.237-8.714
				c0.767-2.89,1.173-7.766,1.173-13.906c0-1.535,0-2.212-0.09-3.341c-1.76,1.445-2.662,2.077-4.47,3.206
				c-0.587-0.994-0.767-1.219-1.85-2.213c4.47-2.573,8.488-6.049,11.376-9.933c1.581-2.032,2.348-3.386,2.62-4.515l3.295,0.904
				c-0.406,0.587-0.542,0.722-0.949,1.399c-0.496,0.723-0.587,0.858-1.173,1.67h8.171c1.898,0,3.071-0.045,4.2-0.225l1.579,1.534
				c-0.541,0.542-0.541,0.588-1.76,2.213c-1.175,1.579-2.484,3.16-3.703,4.334H386.668z M374.117,125.055
				c1.489-1.489,3.205-3.612,4.334-5.373h-11.468c-1.806,2.258-2.979,3.522-4.966,5.328c0.993,0.045,1.399,0.045,2.348,0.045
				H374.117z M373.348,140.542v-5.464h-10.383c-0.09,2.213-0.18,3.387-0.406,5.464H373.348z M363.055,127.539v3.657
				c0,0.406,0,0.496,0,1.354h10.293v-5.011H363.055z M387.21,127.539h-11.108v5.011h11.108V127.539z M387.21,135.078h-11.108v5.464
				h11.108V135.078z"/>
			<path fill="#333333" d="M401.987,120.27c-1.852,0-3.205,0.09-4.516,0.27v-2.98c1.311,0.18,2.574,0.271,4.56,0.271h13.14v-0.406
				c0-1.762-0.046-2.709-0.27-3.747h3.251c-0.182,1.128-0.272,2.212-0.272,3.747v0.406h14.313c1.986,0,3.161-0.091,4.514-0.271v2.98
				c-1.353-0.18-2.662-0.27-4.468-0.27h-14.359v3.341h10.882c1.762,0,2.618-0.045,3.837-0.181c-0.136,1.174-0.18,1.897-0.18,3.251
				v8.444c0,1.309,0.044,1.986,0.18,3.16c-1.309-0.135-2.258-0.18-3.883-0.18h-1.219v3.206h4.742c1.986,0,3.159-0.091,4.514-0.271
				v2.98c-1.309-0.18-2.708-0.271-4.47-0.271h-4.786v7.36c0,2.483-1.083,3.206-4.784,3.206c-1.175,0-1.717,0-4.38-0.135
				c-0.136-1.129-0.226-1.49-0.859-2.845c1.581,0.27,3.567,0.406,5.373,0.406c1.625,0,1.942-0.181,1.942-1.129v-6.863h-22.8
				c-1.762,0-3.115,0.091-4.516,0.271v-2.98c1.311,0.18,2.574,0.271,4.56,0.271h22.756v-3.206h-19.413
				c-1.625,0-2.53,0.045-3.839,0.18c0.136-1.174,0.182-1.942,0.182-3.16v-8.444c0-1.264-0.046-2.032-0.182-3.251
				c1.175,0.136,2.078,0.181,3.839,0.181h9.797v-3.341H401.987z M404.515,125.913v3.612h10.656v-3.612H404.515z M404.515,131.737
				v4.109h10.656v-4.109H404.515z M412.552,152.416c-2.394-2.618-4.064-4.109-6.638-5.914l2.122-1.716
				c2.935,2.032,4.606,3.431,6.728,5.598L412.552,152.416z M417.879,129.525h11.739v-3.612h-11.739V129.525z M417.879,135.846
				h11.739v-4.109h-11.739V135.846z"/>
			<path fill="#333333" d="M462.378,148.307c0,2.393,0.046,3.838,0.226,4.921h-3.251c0.18-1.173,0.226-2.528,0.226-4.921v-8.533
				h-12.371c-0.679,6.817-1.852,10.519-4.876,14.809c-0.993-0.949-1.445-1.264-2.618-1.942c1.942-2.528,2.935-4.56,3.657-7.631
				c0.993-4.154,1.399-10.746,1.399-21.898c0-4.56,0-5.418-0.18-7.359c1.353,0.135,2.708,0.18,4.966,0.18h24.29
				c2.258,0,3.477-0.045,4.786-0.18c-0.136,1.219-0.18,2.392-0.18,4.424v30.296c0,2.845-1.039,3.521-5.419,3.521
				c-1.445,0-3.701-0.09-5.599-0.225c-0.09-1.039-0.27-1.807-0.677-2.935c2.618,0.315,4.83,0.496,6.456,0.496
				c1.988,0,2.394-0.226,2.394-1.355v-10.203h-13.23V148.307z M447.615,129.119c-0.046,1.264-0.046,2.348-0.046,2.98
				c-0.044,2.799-0.044,2.98-0.18,5.057h12.191v-8.036H447.615z M459.579,118.645h-11.875v5.373l-0.046,2.528h11.921V118.645z
				 M475.608,126.546v-7.901h-13.23v7.901H475.608z M462.378,137.155h13.23v-8.036h-13.23V137.155z"/>
			<path fill="#333333" d="M501.992,139.413c-2.618,5.959-5.283,8.669-8.534,8.669c-4.29,0-7.495-4.695-7.495-11.017
				c0-4.605,1.716-9.075,4.74-12.461c3.611-3.974,8.534-6.005,14.583-6.005c5.057,0,9.482,1.58,12.417,4.47
				c2.844,2.754,4.38,6.683,4.38,11.017c0,6.998-3.793,12.777-10.339,15.577c-2.032,0.858-3.749,1.399-6.864,2.077
				c-0.45-1.49-0.723-1.942-1.579-3.026c3.295-0.541,5.417-1.128,7.539-2.122c4.966-2.257,7.993-7.088,7.993-12.641
				c0-5.148-2.62-9.301-7.18-11.333c-1.67-0.723-2.979-1.038-5.237-1.129C505.74,127.765,504.024,134.672,501.992,139.413z
				 M496.438,123.656c-4.56,2.753-7.359,7.856-7.359,13.454c0,4.335,1.896,7.676,4.334,7.676c1.898,0,3.703-2.122,5.645-6.547
				c1.85-4.244,3.521-10.926,4.108-16.705C500.457,121.759,498.515,122.392,496.438,123.656z"/>
			<path fill="#333333" d="M557.702,151.152c-0.182-0.903-0.588-2.528-1.175-4.334l-5.959-19.504
				c-0.587-1.942-0.993-3.477-1.309-5.193c-0.09,0.316-0.18,0.587-0.18,0.768c-0.316,1.174-0.903,3.521-1.175,4.425l-5.913,19.504
				c-0.769,2.438-0.949,3.206-1.175,4.334h-3.477c-0.134-0.813-0.134-0.813-1.219-4.469l-7.132-24.697
				c-0.723-2.483-1.129-3.657-1.852-5.148h4.56c0.09,1.355,0.36,2.845,0.859,4.696l5.327,19.595
				c0.316,1.084,0.587,2.348,1.219,5.102c0.452-1.806,0.993-3.928,1.355-5.147l6.049-19.821c0.496-1.625,0.903-3.386,1.039-4.425
				h3.385c0.226,1.355,0.542,2.709,1.085,4.425l6.049,19.776c0.27,0.993,0.452,1.67,1.355,5.192l1.219-5.192l5.327-19.504
				c0.452-1.762,0.767-3.387,0.859-4.696h4.514c-0.677,1.535-1.039,2.619-1.762,5.148l-7.178,24.697
				c-0.993,3.431-0.993,3.476-1.173,4.469H557.702z"/>
			<path fill="#333333" d="M576.031,139.503c0.136,3.025,0.589,4.695,1.808,6.321c1.443,1.987,3.657,3.071,6.366,3.071
				c3.657,0,6.186-1.806,7.449-5.283l3.161,1.264c-0.857,1.897-1.445,2.709-2.482,3.747c-2.122,2.077-4.876,3.161-8.173,3.161
				c-7.088,0-11.558-4.966-11.558-12.777c0-7.721,4.426-12.777,11.198-12.777c5.823,0,10.023,3.747,10.926,9.798
				c0.046,0.496,0.226,2.257,0.316,3.476H576.031z M591.429,136.659c-0.272-2.528-0.949-4.154-2.394-5.553
				c-1.399-1.354-3.161-2.032-5.327-2.032c-2.754,0-5.057,1.399-6.412,3.928c-0.633,1.129-0.859,1.942-1.129,3.657H591.429z"/>
			<path fill="#333333" d="M600.505,151.152c0.224-1.716,0.316-3.025,0.316-5.192v-24.019c0-1.897-0.092-3.342-0.316-5.103h3.972
				c-0.224,1.67-0.314,2.98-0.314,5.148v6.094c0,1.219-0.046,2.032-0.182,3.206c2.122-3.341,5.193-4.966,9.302-4.966
				c6.952,0,11.106,4.696,11.106,12.552c0,7.946-4.244,12.731-11.288,12.731c-2.845,0-4.92-0.722-6.998-2.437
				c-0.993-0.768-1.399-1.265-2.122-2.348c0.09,0.858,0.136,1.219,0.136,1.806v2.528H600.505z M613.01,129.209
				c-5.327,0-8.848,3.883-8.848,9.663c0,5.824,3.521,9.797,8.714,9.797c5.057,0,8.035-3.657,8.035-9.843
				C620.911,132.731,618.022,129.209,613.01,129.209z"/>
			<path fill="#333333" d="M663.755,121.353c-0.316,0.496-0.316,0.496-0.949,2.799c-2.392,8.669-5.823,14.583-11.332,19.595
				c-4.2,3.793-8.081,6.14-14.177,8.489c-0.679-1.49-1.039-1.987-2.212-3.161c4.064-1.219,6.726-2.438,10.203-4.785
				c7.405-4.921,11.648-11.378,14.223-21.491h-22.982c-2.302,0-3.565,0.045-5.057,0.27v-3.657c1.716,0.271,2.618,0.316,5.103,0.316
				h22.214c1.806,0,2.122-0.045,2.889-0.361L663.755,121.353z"/>
			<path fill="#333333" d="M676.297,132.595c-1.896,0-3.025,0.045-4.062,0.226v-3.161c1.173,0.226,1.896,0.271,4.018,0.271h13.274
				l-0.046-3.161c0-1.671-0.044-2.393-0.224-3.386h3.251c-0.136,0.813-0.182,1.445-0.182,2.483v0.723l0.046,3.341h4.38
				c2.122,0,2.889-0.045,4.064-0.226v3.116c-1.085-0.181-2.258-0.226-4.064-0.226h-4.336l0.226,17.564
				c0,2.077,0.046,2.483,0.226,3.521h-3.431c0.136-1.173,0.136-1.761,0.136-3.341v-0.18l-0.092-13.455
				c0-0.09,0.092-1.219,0.182-2.528c-0.046,0.136-0.046,0.136-0.226,0.496c-2.438,5.103-8.85,10.882-16.931,15.216
				c-0.677-1.128-0.993-1.534-2.032-2.438c3.611-1.579,6.862-3.702,10.339-6.682c3.025-2.663,5.193-5.147,6.998-8.172H676.297z"/>
			<path fill="#333333" d="M707.717,147.494c3.523-0.135,8.94-1.534,13.14-3.476c8.714-3.882,14.763-10.519,18.42-20.092
				c1.039,1.4,1.489,1.807,2.754,2.664c-3.611,7.856-7.811,13.139-13.77,17.247c-4.65,3.16-9.3,5.011-16.841,6.727
				c-1.219,0.271-1.579,0.361-2.708,0.723L707.717,147.494z M710.608,119.502c4.83,3.07,7.631,5.282,10.882,8.488l-2.348,2.799
				c-3.251-3.522-6.818-6.457-10.746-8.849L710.608,119.502z"/>
			<path fill="#333333" d="M752.005,152.822c0.182-1.219,0.272-2.302,0.272-4.74v-28.038c0-2.393-0.09-3.476-0.272-4.605h3.883
				c-0.18,1.174-0.226,2.122-0.226,4.695v8.444c6.954,2.483,12.191,4.966,20.092,9.527l-1.942,3.341
				c-4.244-2.98-10.473-6.321-16.841-8.94c-0.677-0.27-0.993-0.451-1.399-0.768l-0.09,0.045c0.136,0.904,0.18,1.535,0.18,2.664
				v13.59c0,2.528,0.046,3.521,0.226,4.785H752.005z"/>
		</g>
		<g>
			<path fill="#333333" d="M259.961,53.281V81.56h-17.254V53.281L215.754,7.188h15.212c1.496,0,2.687,0.349,3.572,1.046
				c0.885,0.698,1.599,1.591,2.145,2.68l10.514,21.643c0.851,1.736,1.633,3.336,2.349,4.798c0.714,1.464,1.343,2.91,1.887,4.339
				c0.511-1.464,1.124-2.927,1.838-4.39c0.716-1.464,1.481-3.046,2.298-4.748l10.413-21.643c0.204-0.442,0.485-0.884,0.843-1.327
				c0.357-0.442,0.765-0.842,1.225-1.199c0.458-0.358,0.987-0.646,1.582-0.868c0.595-0.22,1.25-0.331,1.965-0.331h15.314
				L259.961,53.281z"/>
			<path fill="#333333" d="M318.172,81.56c-1.498,0-2.63-0.204-3.395-0.613s-1.404-1.258-1.914-2.552l-1.124-2.909
				c-1.326,1.123-2.603,2.11-3.828,2.961c-1.225,0.85-2.494,1.574-3.803,2.169c-1.311,0.596-2.706,1.038-4.185,1.327
				c-1.481,0.289-3.124,0.434-4.927,0.434c-2.416,0-4.61-0.316-6.585-0.947c-1.973-0.632-3.649-1.562-5.026-2.791
				c-1.38-1.229-2.443-2.757-3.191-4.584c-0.75-1.826-1.124-3.935-1.124-6.324c0-1.878,0.477-3.807,1.429-5.788
				c0.952-1.98,2.603-3.78,4.952-5.402c2.347-1.622,5.513-2.979,9.493-4.071c3.982-1.092,9.001-1.639,15.06-1.639v-2.267
				c0-3.125-0.639-5.383-1.914-6.774c-1.277-1.391-3.089-2.087-5.437-2.087c-1.872,0-3.404,0.204-4.595,0.613
				c-1.191,0.408-2.254,0.868-3.191,1.379c-0.935,0.51-1.845,0.969-2.731,1.378c-0.885,0.408-1.939,0.613-3.164,0.613
				c-1.09,0-2.017-0.263-2.782-0.791c-0.765-0.528-1.37-1.182-1.813-1.965l-2.859-4.951c3.198-2.825,6.746-4.926,10.644-6.305
				c3.895-1.378,8.072-2.067,12.531-2.067c3.198,0,6.082,0.519,8.652,1.556c2.568,1.039,4.748,2.485,6.534,4.339
				c1.786,1.855,3.156,4.058,4.108,6.61s1.429,5.343,1.429,8.371V81.56H318.172z M299.999,71.913c2.042,0,3.828-0.358,5.358-1.072
				c1.532-0.715,3.08-1.871,4.647-3.471v-7.248c-3.166,0-5.769,0.207-7.81,0.618c-2.042,0.411-3.658,0.926-4.849,1.545
				c-1.193,0.618-2.017,1.321-2.477,2.111c-0.458,0.789-0.689,1.647-0.689,2.573c0,1.82,0.494,3.099,1.481,3.837
				C296.647,71.544,298.093,71.913,299.999,71.913z"/>
			<path fill="#333333" d="M350.43,5.146v42.827h2.347c0.987,0,1.744-0.135,2.273-0.408c0.527-0.272,1.029-0.765,1.506-1.48
				l10.005-14.905c0.578-0.885,1.267-1.531,2.067-1.94s1.813-0.613,3.038-0.613h14.497l-13.68,18.835
				c-0.647,0.885-1.353,1.668-2.118,2.348c-0.767,0.681-1.591,1.294-2.477,1.838c1.532,1.157,2.859,2.689,3.982,4.594l14.905,25.319
				h-14.293c-1.193,0-2.221-0.196-3.089-0.587c-0.866-0.391-1.574-1.08-2.118-2.068L357.27,60.173
				c-0.477-0.851-0.969-1.404-1.481-1.659c-0.51-0.256-1.275-0.383-2.296-0.383h-3.063V81.56h-15.825V5.146H350.43z"/>
			<path fill="#333333" d="M406.038,28.627v33.588c0,2.62,0.595,4.645,1.786,6.074c1.191,1.429,2.943,2.144,5.257,2.144
				c1.737,0,3.36-0.357,4.876-1.071c1.513-0.715,2.986-1.718,4.416-3.012V28.627h15.823V81.56h-9.801
				c-1.973,0-3.267-0.884-3.879-2.654l-0.969-3.063c-1.021,0.988-2.076,1.881-3.166,2.68c-1.088,0.8-2.254,1.48-3.496,2.042
				c-1.242,0.561-2.578,1.003-4.007,1.327c-1.429,0.322-2.994,0.485-4.696,0.485c-2.893,0-5.454-0.503-7.683-1.506
				c-2.229-1.004-4.108-2.407-5.641-4.211c-1.53-1.803-2.687-3.93-3.471-6.38c-0.782-2.45-1.174-5.139-1.174-8.065V28.627H406.038z"
				/>
			<path fill="#333333" d="M535.079,81.56h-17.355V50.116h-30.219V81.56H470.15V7.188h17.355v31.086h30.219V7.188h17.355V81.56z"/>
			<path fill="#333333" d="M581.694,81.56c-1.498,0-2.628-0.204-3.395-0.613c-0.765-0.408-1.403-1.258-1.914-2.552l-1.122-2.909
				c-1.328,1.123-2.605,2.11-3.83,2.961c-1.225,0.85-2.492,1.574-3.801,2.169c-1.311,0.596-2.706,1.038-4.187,1.327
				c-1.481,0.289-3.122,0.434-4.925,0.434c-2.418,0-4.612-0.316-6.585-0.947c-1.973-0.632-3.651-1.562-5.028-2.791
				c-1.378-1.229-2.443-2.757-3.191-4.584s-1.122-3.935-1.122-6.324c0-1.878,0.475-3.807,1.429-5.788
				c0.952-1.98,2.603-3.78,4.95-5.402c2.349-1.622,5.513-2.979,9.495-4.071c3.981-1.092,9.001-1.639,15.058-1.639v-2.267
				c0-3.125-0.637-5.383-1.914-6.774c-1.277-1.391-3.088-2.087-5.437-2.087c-1.872,0-3.402,0.204-4.593,0.613
				c-1.193,0.408-2.256,0.868-3.191,1.379c-0.937,0.51-1.847,0.969-2.731,1.378c-0.885,0.408-1.941,0.613-3.166,0.613
				c-1.09,0-2.015-0.263-2.782-0.791c-0.765-0.528-1.37-1.182-1.811-1.965l-2.859-4.951c3.198-2.825,6.746-4.926,10.642-6.305
				c3.897-1.378,8.074-2.067,12.531-2.067c3.198,0,6.083,0.519,8.652,1.556c2.57,1.039,4.748,2.485,6.534,4.339
				c1.788,1.855,3.156,4.058,4.11,6.61c0.952,2.552,1.429,5.343,1.429,8.371V81.56H581.694z M563.522,71.913
				c2.042,0,3.828-0.358,5.36-1.072c1.53-0.715,3.08-1.871,4.645-3.471v-7.248c-3.164,0-5.769,0.207-7.81,0.618
				c-2.042,0.411-3.658,0.926-4.849,1.545s-2.015,1.321-2.475,2.111c-0.46,0.789-0.689,1.647-0.689,2.573
				c0,1.82,0.492,3.099,1.479,3.837C560.171,71.544,561.615,71.913,563.522,71.913z"/>
			<path fill="#333333" d="M598.13,81.56V28.627h9.801c0.987,0,1.811,0.221,2.475,0.663c0.664,0.443,1.132,1.106,1.404,1.991
				l0.918,3.063c1.021-0.953,2.076-1.838,3.166-2.654c1.088-0.817,2.254-1.507,3.496-2.068c1.242-0.562,2.586-1.004,4.032-1.327
				c1.446-0.323,3.021-0.485,4.723-0.485c2.891,0,5.452,0.502,7.683,1.506c2.227,1.004,4.108,2.399,5.639,4.186
				c1.532,1.786,2.689,3.914,3.471,6.38c0.784,2.468,1.175,5.147,1.175,8.04V81.56h-15.825V47.922c0-2.587-0.595-4.603-1.786-6.049
				s-2.944-2.17-5.257-2.17c-1.737,0-3.37,0.375-4.9,1.123c-1.532,0.749-2.996,1.753-4.391,3.012V81.56H598.13z"/>
			<path fill="#333333" d="M708.691,54.608c0,4.152-0.519,7.93-1.557,11.332c-1.038,3.403-2.603,6.322-4.696,8.754
				c-2.091,2.434-4.721,4.322-7.887,5.667c-3.164,1.343-6.891,2.016-11.178,2.016c-1.939,0-3.853-0.102-5.742-0.306
				c-1.889-0.204-3.855-0.544-5.896-1.021l0.92-10.055c0.067-0.885,0.416-1.6,1.046-2.144c0.63-0.545,1.506-0.817,2.63-0.817
				c0.578,0,1.292,0.094,2.143,0.281c0.851,0.187,1.872,0.281,3.063,0.281c1.668,0,3.122-0.23,4.364-0.689
				c1.242-0.46,2.273-1.225,3.089-2.298c0.817-1.071,1.429-2.475,1.838-4.211c0.408-1.736,0.613-3.879,0.613-6.432V7.188h17.252
				V54.608z"/>
			<path fill="#333333" d="M736.857,56.702V81.56h-17.252V7.188h26.236c5.24,0,9.742,0.621,13.503,1.862
				c3.759,1.243,6.856,2.953,9.289,5.13c2.433,2.178,4.229,4.748,5.385,7.708c1.156,2.961,1.737,6.159,1.737,9.597
				c0,3.709-0.597,7.112-1.788,10.209c-1.191,3.096-3.011,5.75-5.461,7.963c-2.45,2.212-5.555,3.939-9.316,5.181
				c-3.759,1.242-8.209,1.863-13.348,1.863H736.857z M736.857,43.685h8.984c4.492,0,7.725-1.071,9.7-3.215
				c1.973-2.144,2.96-5.139,2.96-8.984c0-1.702-0.256-3.25-0.765-4.646c-0.511-1.395-1.284-2.594-2.322-3.599
				c-1.038-1.003-2.349-1.778-3.931-2.322c-1.582-0.544-3.463-0.817-5.641-0.817h-8.984V43.685z"/>
		</g>
	</g>
</g>
</svg>
