<?xml version="1.0" encoding="utf-8"?>
<!-- Generator: Adobe Illustrator 21.1.0, SVG Export Plug-In . SVG Version: 6.00 Build 0)  -->
<svg version="1.1" id="レイヤー_1" xmlns="http://www.w3.org/2000/svg" xmlns:xlink="http://www.w3.org/1999/xlink" x="0px"
	 y="0px" viewBox="0 0 198 30" enable-background="new 0 0 198 30" xml:space="preserve">
<g>
	<path fill="#454C86" d="M52.247,16.069c0.924-1.161,1.386-2.594,1.386-4.3c0-1.445-0.273-2.653-0.817-3.625
		c-0.545-0.971-1.274-1.753-2.186-2.346c-0.912-0.592-1.943-1.013-3.092-1.262c-1.149-0.249-2.328-0.373-3.536-0.373h-9.595v25.161
		h5.935v-9.986h2.072l5.463,9.986h7.108l-6.575-10.768C50.043,18.059,51.323,17.23,52.247,16.069z M47.216,13.439
		c-0.274,0.403-0.625,0.711-1.053,0.924c-0.429,0.213-0.904,0.361-1.428,0.444c-0.524,0.083-1.036,0.124-1.536,0.124h-2.892V9.068
		h3.249c0.452,0,0.922,0.036,1.411,0.107c0.488,0.071,0.928,0.208,1.321,0.409c0.393,0.202,0.714,0.486,0.964,0.853
		c0.25,0.368,0.376,0.848,0.376,1.439C47.627,12.515,47.49,13.037,47.216,13.439z"/>
	<path fill="#454C86" d="M67.952,4.164L57.397,29.325h6.61l1.848-4.94h9.737l1.955,4.94h6.752L73.851,4.164H67.952z M67.596,19.516
		l3.198-8.636l3.127,8.636H67.596z"/>
	<polygon fill="#454C86" points="104.833,20.582 104.726,20.582 94.633,4.164 87.703,4.164 87.703,29.325 93.603,29.325 
		93.46,12.871 93.567,12.871 103.695,29.325 110.59,29.325 110.59,4.164 104.69,4.164 	"/>
	<path fill="#454C86" d="M138.843,7.042c-1.221-1.137-2.672-2.013-4.354-2.63c-1.682-0.616-3.506-0.924-5.473-0.924
		c-1.967,0-3.785,0.308-5.455,0.924c-1.67,0.617-3.116,1.493-4.336,2.63c-1.22,1.137-2.174,2.518-2.861,4.14
		c-0.687,1.623-1.03,3.441-1.03,5.455c0,1.99,0.343,3.809,1.03,5.455c0.687,1.647,1.64,3.056,2.861,4.229
		c1.22,1.173,2.666,2.079,4.336,2.719c1.67,0.64,3.488,0.959,5.455,0.959c1.966,0,3.79-0.32,5.473-0.959
		c1.682-0.64,3.133-1.546,4.354-2.719c1.22-1.173,2.173-2.582,2.861-4.229c0.687-1.646,1.03-3.465,1.03-5.455
		c0-2.013-0.343-3.832-1.03-5.455C141.016,9.56,140.062,8.18,138.843,7.042z M135.697,19.783c-0.355,0.96-0.853,1.783-1.493,2.47
		c-0.64,0.688-1.398,1.226-2.274,1.617c-0.877,0.391-1.848,0.586-2.914,0.586c-1.066,0-2.038-0.196-2.914-0.586
		c-0.877-0.391-1.629-0.93-2.257-1.617c-0.628-0.687-1.119-1.51-1.475-2.47c-0.355-0.959-0.533-2.008-0.533-3.145
		c0-1.089,0.171-2.108,0.515-3.056c0.343-0.948,0.835-1.759,1.475-2.434c0.64-0.675,1.398-1.208,2.275-1.599
		c0.876-0.391,1.848-0.586,2.914-0.586c1.066,0,2.043,0.195,2.932,0.586c0.888,0.391,1.646,0.924,2.274,1.599
		c0.627,0.675,1.12,1.487,1.475,2.434c0.355,0.948,0.533,1.967,0.533,3.056C136.23,17.775,136.053,18.823,135.697,19.783z"/>
	<polygon fill="#454C86" points="169.779,4.164 162.175,4.164 153.183,14.399 153.077,14.399 153.077,4.164 147.142,4.164 
		147.142,29.325 153.077,29.325 153.077,17.739 153.148,17.739 162.494,29.325 170.419,29.325 158.94,15.749 	"/>
	<path fill="#454C86" d="M196.97,11.183c-0.687-1.622-1.641-3.003-2.861-4.14c-1.22-1.137-2.671-2.013-4.353-2.63
		c-1.683-0.616-3.506-0.924-5.473-0.924c-1.967,0-3.785,0.308-5.455,0.924c-1.67,0.617-3.116,1.493-4.336,2.63
		c-1.221,1.137-2.174,2.518-2.861,4.14c-0.688,1.623-1.03,3.441-1.03,5.455c0,1.99,0.343,3.809,1.03,5.455
		c0.687,1.647,1.64,3.056,2.861,4.229c1.22,1.173,2.665,2.079,4.336,2.719c1.67,0.64,3.488,0.959,5.455,0.959
		c1.967,0,3.79-0.32,5.473-0.959c1.682-0.64,3.133-1.546,4.353-2.719c1.22-1.173,2.174-2.582,2.861-4.229
		c0.687-1.646,1.031-3.465,1.031-5.455C198,14.624,197.657,12.806,196.97,11.183z M190.964,19.783
		c-0.355,0.96-0.853,1.783-1.492,2.47c-0.64,0.688-1.398,1.226-2.274,1.617c-0.877,0.391-1.848,0.586-2.914,0.586
		s-2.038-0.196-2.914-0.586c-0.877-0.391-1.629-0.93-2.257-1.617c-0.628-0.687-1.12-1.51-1.475-2.47
		c-0.355-0.959-0.533-2.008-0.533-3.145c0-1.089,0.171-2.108,0.515-3.056c0.343-0.948,0.835-1.759,1.475-2.434
		c0.64-0.675,1.398-1.208,2.275-1.599c0.876-0.391,1.848-0.586,2.914-0.586s2.044,0.195,2.932,0.586
		c0.888,0.391,1.646,0.924,2.274,1.599c0.627,0.675,1.12,1.487,1.475,2.434c0.355,0.948,0.533,1.967,0.533,3.056
		C191.497,17.775,191.319,18.823,190.964,19.783z"/>
	<path fill="#454C86" d="M23.455,24.491c0.45-0.355,0.9-0.799,1.351-1.333c0.45-0.533,0.853-1.143,1.208-1.83
		c0.355-0.687,0.64-1.451,0.853-2.292c0.213-0.841,0.32-1.747,0.32-2.719c0-1.895-0.338-3.63-1.013-5.206
		c-0.675-1.575-1.617-2.926-2.825-4.051c-1.208-1.125-2.642-2.002-4.3-2.63h0.009C13.646,1.628,14.774,0,13.646,0
		c-1.126,0-0.003,1.624-5.393,4.421C8.245,4.425,8.236,4.427,8.227,4.431c-1.67,0.628-3.116,1.51-4.336,2.647
		c-1.22,1.137-2.174,2.5-2.861,4.087C0.343,12.753,0,14.505,0,16.424c0,2.061,0.326,3.891,0.977,5.491
		c0.652,1.599,1.564,2.95,2.736,4.051c1.173,1.102,2.589,1.937,4.247,2.505c1.658,0.569,3.482,0.853,5.473,0.853H28.75v-4.833
		l-5.295,0.107V24.491z M20.221,19.605c-0.355,0.936-0.853,1.741-1.493,2.416c-0.64,0.675-1.398,1.197-2.275,1.564
		c-0.877,0.368-1.824,0.551-2.843,0.551c-1.043,0-1.996-0.183-2.861-0.551c-0.865-0.367-1.611-0.888-2.239-1.564
		s-1.114-1.48-1.457-2.416c-0.343-0.936-0.515-1.972-0.515-3.11c0-1.089,0.178-2.097,0.533-3.021
		c0.355-0.924,0.853-1.717,1.492-2.381c0.64-0.663,1.392-1.178,2.257-1.546c0.864-0.367,1.806-0.551,2.825-0.551
		c1.042,0,2.002,0.184,2.878,0.551c0.876,0.367,1.629,0.883,2.257,1.546c0.627,0.664,1.113,1.457,1.457,2.381
		c0.343,0.924,0.515,1.932,0.515,3.021C20.754,17.633,20.576,18.669,20.221,19.605z"/>
</g>
</svg>
