<?xml version="1.0" encoding="utf-8"?>
<!-- Generator: Adobe Illustrator 21.0.2, SVG Export Plug-In . SVG Version: 6.00 Build 0)  -->
<svg version="1.1" id="レイヤー_1" xmlns="http://www.w3.org/2000/svg" xmlns:xlink="http://www.w3.org/1999/xlink" x="0px"
	 y="0px" viewBox="0 0 560 80" enable-background="new 0 0 560 80" xml:space="preserve">
<g>
	<path fill="#333333" d="M44.206,49.52v28.279H26.952V49.52L0,3.426h15.212c1.496,0,2.687,0.349,3.572,1.046
		c0.885,0.698,1.599,1.591,2.145,2.68l10.514,21.643c0.851,1.736,1.633,3.336,2.349,4.798c0.714,1.464,1.343,2.91,1.887,4.339
		c0.511-1.464,1.124-2.927,1.838-4.39c0.716-1.464,1.481-3.046,2.298-4.748L50.229,7.152c0.204-0.442,0.485-0.884,0.843-1.327
		c0.357-0.442,0.765-0.842,1.225-1.199c0.458-0.358,0.987-0.646,1.582-0.868c0.595-0.22,1.25-0.331,1.965-0.331h15.314L44.206,49.52
		z"/>
	<path fill="#333333" d="M102.417,77.799c-1.498,0-2.63-0.204-3.395-0.613c-0.765-0.408-1.404-1.258-1.914-2.552l-1.124-2.909
		c-1.326,1.123-2.603,2.11-3.828,2.961c-1.225,0.85-2.494,1.574-3.803,2.169c-1.311,0.596-2.706,1.038-4.185,1.327
		c-1.481,0.289-3.124,0.434-4.927,0.434c-2.416,0-4.61-0.316-6.585-0.947c-1.973-0.632-3.649-1.562-5.026-2.791
		c-1.38-1.229-2.443-2.757-3.191-4.584c-0.75-1.826-1.124-3.935-1.124-6.324c0-1.878,0.477-3.807,1.429-5.788
		c0.952-1.98,2.603-3.78,4.952-5.402c2.347-1.622,5.513-2.979,9.493-4.071c3.982-1.092,9.001-1.639,15.06-1.639v-2.267
		c0-3.125-0.639-5.383-1.914-6.774c-1.277-1.391-3.089-2.087-5.437-2.087c-1.872,0-3.404,0.204-4.595,0.613
		s-2.254,0.868-3.191,1.379c-0.935,0.51-1.845,0.969-2.731,1.378c-0.885,0.408-1.939,0.613-3.164,0.613
		c-1.09,0-2.017-0.263-2.782-0.791c-0.765-0.528-1.37-1.182-1.813-1.965l-2.859-4.951c3.198-2.825,6.746-4.926,10.644-6.305
		c3.895-1.378,8.072-2.067,12.531-2.067c3.198,0,6.082,0.519,8.652,1.556c2.568,1.039,4.748,2.485,6.534,4.339
		c1.786,1.855,3.156,4.058,4.108,6.61c0.952,2.552,1.429,5.343,1.429,8.371v33.077H102.417z M84.245,68.152
		c2.042,0,3.828-0.358,5.358-1.072c1.532-0.715,3.08-1.871,4.647-3.471V56.36c-3.166,0-5.769,0.207-7.81,0.618
		c-2.042,0.411-3.658,0.926-4.849,1.545c-1.193,0.618-2.017,1.321-2.477,2.111c-0.458,0.789-0.689,1.647-0.689,2.573
		c0,1.82,0.494,3.099,1.481,3.837C80.892,67.783,82.339,68.152,84.245,68.152z"/>
	<path fill="#333333" d="M134.676,1.384v42.827h2.347c0.987,0,1.744-0.135,2.273-0.408c0.527-0.272,1.029-0.765,1.506-1.48
		l10.005-14.905c0.578-0.885,1.267-1.531,2.067-1.94c0.8-0.408,1.813-0.613,3.038-0.613h14.497l-13.68,18.835
		c-0.647,0.885-1.353,1.668-2.118,2.348c-0.767,0.681-1.591,1.294-2.477,1.838c1.532,1.157,2.859,2.689,3.982,4.594l14.905,25.319
		h-14.293c-1.193,0-2.221-0.196-3.089-0.587c-0.866-0.391-1.574-1.08-2.118-2.068l-10.005-18.733
		c-0.477-0.851-0.969-1.404-1.481-1.659c-0.51-0.256-1.275-0.383-2.296-0.383h-3.063v23.429h-15.825V1.384H134.676z"/>
	<path fill="#333333" d="M190.284,24.865v33.588c0,2.62,0.595,4.645,1.786,6.074c1.191,1.429,2.943,2.144,5.257,2.144
		c1.736,0,3.36-0.357,4.876-1.071c1.513-0.715,2.986-1.718,4.416-3.012V24.865h15.823v52.934h-9.801
		c-1.973,0-3.267-0.884-3.879-2.654l-0.969-3.063c-1.021,0.988-2.076,1.881-3.166,2.68c-1.088,0.8-2.254,1.48-3.496,2.042
		c-1.242,0.561-2.578,1.003-4.007,1.327c-1.429,0.322-2.994,0.485-4.696,0.485c-2.893,0-5.454-0.503-7.683-1.506
		c-2.229-1.004-4.108-2.407-5.641-4.211c-1.53-1.803-2.687-3.93-3.471-6.38c-0.782-2.45-1.174-5.139-1.174-8.065V24.865H190.284z"/>
	<path fill="#333333" d="M319.325,77.799H301.97V46.355h-30.219v31.444h-17.355V3.426h17.355v31.086h30.219V3.426h17.355V77.799z"/>
	<path fill="#333333" d="M365.94,77.799c-1.498,0-2.628-0.204-3.395-0.613c-0.765-0.408-1.403-1.258-1.914-2.552l-1.122-2.909
		c-1.328,1.123-2.605,2.11-3.83,2.961c-1.225,0.85-2.492,1.574-3.801,2.169c-1.311,0.596-2.706,1.038-4.187,1.327
		c-1.481,0.289-3.122,0.434-4.925,0.434c-2.418,0-4.612-0.316-6.585-0.947s-3.65-1.562-5.028-2.791s-2.443-2.757-3.191-4.584
		c-0.748-1.826-1.122-3.935-1.122-6.324c0-1.878,0.475-3.807,1.429-5.788c0.952-1.98,2.603-3.78,4.95-5.402
		c2.349-1.622,5.513-2.979,9.495-4.071c3.981-1.092,9.001-1.639,15.058-1.639v-2.267c0-3.125-0.637-5.383-1.914-6.774
		c-1.277-1.391-3.088-2.087-5.437-2.087c-1.872,0-3.402,0.204-4.593,0.613c-1.193,0.408-2.256,0.868-3.191,1.379
		c-0.937,0.51-1.847,0.969-2.731,1.378c-0.885,0.408-1.941,0.613-3.166,0.613c-1.09,0-2.015-0.263-2.782-0.791
		c-0.765-0.528-1.37-1.182-1.811-1.965l-2.859-4.951c3.198-2.825,6.746-4.926,10.642-6.305c3.897-1.378,8.074-2.067,12.531-2.067
		c3.198,0,6.083,0.519,8.652,1.556c2.57,1.039,4.748,2.485,6.534,4.339c1.788,1.855,3.156,4.058,4.11,6.61
		c0.952,2.552,1.429,5.343,1.429,8.371v33.077H365.94z M347.767,68.152c2.042,0,3.828-0.358,5.36-1.072
		c1.53-0.715,3.08-1.871,4.645-3.471V56.36c-3.164,0-5.769,0.207-7.81,0.618c-2.042,0.411-3.658,0.926-4.849,1.545
		c-1.191,0.618-2.015,1.321-2.475,2.111c-0.46,0.789-0.689,1.647-0.689,2.573c0,1.82,0.492,3.099,1.479,3.837
		C344.416,67.783,345.861,68.152,347.767,68.152z"/>
	<path fill="#333333" d="M382.375,77.799V24.865h9.801c0.987,0,1.811,0.221,2.475,0.663c0.664,0.443,1.132,1.106,1.404,1.991
		l0.918,3.063c1.021-0.953,2.076-1.838,3.166-2.654c1.088-0.817,2.254-1.507,3.496-2.068c1.242-0.562,2.586-1.004,4.032-1.327
		c1.446-0.323,3.021-0.485,4.723-0.485c2.891,0,5.452,0.502,7.683,1.506c2.227,1.004,4.108,2.399,5.639,4.186
		c1.532,1.786,2.689,3.914,3.471,6.38c0.784,2.468,1.175,5.147,1.175,8.04v33.638h-15.825V44.16c0-2.587-0.595-4.603-1.786-6.049
		c-1.191-1.446-2.944-2.17-5.257-2.17c-1.736,0-3.37,0.375-4.9,1.123c-1.532,0.749-2.996,1.753-4.391,3.012v37.722H382.375z"/>
	<path fill="#333333" d="M492.937,50.847c0,4.152-0.519,7.93-1.557,11.332c-1.038,3.403-2.603,6.322-4.696,8.754
		c-2.091,2.434-4.721,4.322-7.887,5.667c-3.164,1.343-6.891,2.016-11.178,2.016c-1.939,0-3.853-0.102-5.742-0.306
		c-1.889-0.204-3.855-0.544-5.896-1.021l0.92-10.055c0.067-0.885,0.416-1.6,1.046-2.144c0.63-0.545,1.506-0.817,2.63-0.817
		c0.578,0,1.292,0.094,2.143,0.281c0.851,0.187,1.872,0.281,3.063,0.281c1.668,0,3.122-0.23,4.364-0.689
		c1.242-0.46,2.273-1.225,3.089-2.298c0.817-1.071,1.429-2.475,1.838-4.211c0.408-1.736,0.613-3.879,0.613-6.432V3.426h17.252
		V50.847z"/>
	<path fill="#333333" d="M521.102,52.94v24.859H503.85V3.426h26.236c5.24,0,9.742,0.621,13.503,1.862
		c3.759,1.243,6.856,2.953,9.289,5.13c2.433,2.178,4.229,4.748,5.385,7.708c1.156,2.961,1.737,6.159,1.737,9.597
		c0,3.709-0.597,7.112-1.788,10.209c-1.191,3.096-3.011,5.75-5.461,7.963c-2.45,2.212-5.555,3.939-9.316,5.181
		c-3.759,1.242-8.209,1.863-13.348,1.863H521.102z M521.102,39.923h8.984c4.492,0,7.725-1.071,9.7-3.215
		c1.973-2.144,2.96-5.139,2.96-8.984c0-1.702-0.256-3.25-0.765-4.646c-0.511-1.395-1.284-2.594-2.322-3.599
		c-1.038-1.003-2.349-1.778-3.931-2.322c-1.582-0.544-3.463-0.817-5.641-0.817h-8.984V39.923z"/>
</g>
</svg>
