<svg xmlns="http://www.w3.org/2000/svg" viewBox="0 0 560 80"><path d="M44.206 49.52v28.279H26.952V49.52L0 3.426h15.212c1.496 0 2.687.349 3.572 1.046.885.698 1.599 1.591 2.145 2.68l10.514 21.643 2.349 4.798a52.59 52.59 0 0 1 1.887 4.339 40.267 40.267 0 0 1 1.838-4.39 725.146 725.146 0 0 0 2.298-4.748L50.229 7.152c.204-.442.485-.884.843-1.327a7.4 7.4 0 0 1 1.225-1.199 5.894 5.894 0 0 1 1.582-.868 5.627 5.627 0 0 1 1.965-.331h15.314L44.206 49.52zm58.211 28.279c-1.498 0-2.63-.204-3.395-.613-.765-.408-1.404-1.258-1.914-2.552l-1.124-2.909a50.864 50.864 0 0 1-3.828 2.961 24.33 24.33 0 0 1-3.803 2.169 18.771 18.771 0 0 1-4.185 1.327c-1.481.289-3.124.434-4.927.434-2.416 0-4.61-.316-6.585-.947-1.973-.632-3.649-1.562-5.026-2.791-1.38-1.229-2.443-2.757-3.191-4.584-.75-1.826-1.124-3.935-1.124-6.324 0-1.878.477-3.807 1.429-5.788.952-1.98 2.603-3.78 4.952-5.402 2.347-1.622 5.513-2.979 9.493-4.071 3.982-1.092 9.001-1.639 15.06-1.639v-2.267c0-3.125-.639-5.383-1.914-6.774-1.277-1.391-3.089-2.087-5.437-2.087-1.872 0-3.404.204-4.595.613s-2.254.868-3.191 1.379c-.935.51-1.845.969-2.731 1.378-.885.408-1.939.613-3.164.613-1.09 0-2.017-.263-2.782-.791a5.894 5.894 0 0 1-1.813-1.965l-2.859-4.951c3.198-2.825 6.746-4.926 10.644-6.305 3.895-1.378 8.072-2.067 12.531-2.067 3.198 0 6.082.519 8.652 1.556 2.568 1.039 4.748 2.485 6.534 4.339 1.786 1.855 3.156 4.058 4.108 6.61.952 2.552 1.429 5.343 1.429 8.371v33.077h-7.244zm-18.172-9.647c2.042 0 3.828-.358 5.358-1.072 1.532-.715 3.08-1.871 4.647-3.471V56.36c-3.166 0-5.769.207-7.81.618-2.042.411-3.658.926-4.849 1.545-1.193.618-2.017 1.321-2.477 2.111a5.039 5.039 0 0 0-.689 2.573c0 1.82.494 3.099 1.481 3.837.986.739 2.433 1.108 4.339 1.108zm50.431-66.768v42.827h2.347c.987 0 1.744-.135 2.273-.408.527-.272 1.029-.765 1.506-1.48l10.005-14.905c.578-.885 1.267-1.531 2.067-1.94.8-.408 1.813-.613 3.038-.613h14.497L156.729 43.7a14.856 14.856 0 0 1-2.118 2.348 17.561 17.561 0 0 1-2.477 1.838c1.532 1.157 2.859 2.689 3.982 4.594l14.905 25.319h-14.293c-1.193 0-2.221-.196-3.089-.587-.866-.391-1.574-1.08-2.118-2.068l-10.005-18.733c-.477-.851-.969-1.404-1.481-1.659-.51-.256-1.275-.383-2.296-.383h-3.063v23.429h-15.825V1.384h15.825zm55.608 23.481v33.588c0 2.62.595 4.645 1.786 6.074 1.191 1.429 2.943 2.144 5.257 2.144 1.736 0 3.36-.357 4.876-1.071 1.513-.715 2.986-1.718 4.416-3.012V24.865h15.823v52.934h-9.801c-1.973 0-3.267-.884-3.879-2.654l-.969-3.063a30.403 30.403 0 0 1-3.166 2.68c-1.088.8-2.254 1.48-3.496 2.042a20.975 20.975 0 0 1-4.007 1.327c-1.429.322-2.994.485-4.696.485-2.893 0-5.454-.503-7.683-1.506-2.229-1.004-4.108-2.407-5.641-4.211-1.53-1.803-2.687-3.93-3.471-6.38-.782-2.45-1.174-5.139-1.174-8.065V24.865h15.825zm129.041 52.934H301.97V46.355h-30.219v31.444h-17.355V3.426h17.355v31.086h30.219V3.426h17.355v74.373zm46.615 0c-1.498 0-2.628-.204-3.395-.613-.765-.408-1.403-1.258-1.914-2.552l-1.122-2.909a51.284 51.284 0 0 1-3.83 2.961 24.311 24.311 0 0 1-3.801 2.169 18.755 18.755 0 0 1-4.187 1.327c-1.481.289-3.122.434-4.925.434-2.418 0-4.612-.316-6.585-.947s-3.65-1.562-5.028-2.791-2.443-2.757-3.191-4.584c-.748-1.826-1.122-3.935-1.122-6.324 0-1.878.475-3.807 1.429-5.788.952-1.98 2.603-3.78 4.95-5.402 2.349-1.622 5.513-2.979 9.495-4.071 3.981-1.092 9.001-1.639 15.058-1.639v-2.267c0-3.125-.637-5.383-1.914-6.774s-3.088-2.087-5.437-2.087c-1.872 0-3.402.204-4.593.613a20.458 20.458 0 0 0-3.191 1.379c-.937.51-1.847.969-2.731 1.378-.885.408-1.941.613-3.166.613-1.09 0-2.015-.263-2.782-.791a5.867 5.867 0 0 1-1.811-1.965l-2.859-4.951c3.198-2.825 6.746-4.926 10.642-6.305 3.897-1.378 8.074-2.067 12.531-2.067 3.198 0 6.083.519 8.652 1.556 2.57 1.039 4.748 2.485 6.534 4.339 1.788 1.855 3.156 4.058 4.11 6.61.952 2.552 1.429 5.343 1.429 8.371v33.077h-7.246zm-18.173-9.647c2.042 0 3.828-.358 5.36-1.072 1.53-.715 3.08-1.871 4.645-3.471V56.36c-3.164 0-5.769.207-7.81.618-2.042.411-3.658.926-4.849 1.545-1.191.618-2.015 1.321-2.475 2.111a5.02 5.02 0 0 0-.689 2.573c0 1.82.492 3.099 1.479 3.837.988.739 2.433 1.108 4.339 1.108zm34.608 9.647V24.865h9.801c.987 0 1.811.221 2.475.663.664.443 1.132 1.106 1.404 1.991l.918 3.063a38.127 38.127 0 0 1 3.166-2.654 18.465 18.465 0 0 1 3.496-2.068 20.7 20.7 0 0 1 4.032-1.327c1.446-.323 3.021-.485 4.723-.485 2.891 0 5.452.502 7.683 1.506 2.227 1.004 4.108 2.399 5.639 4.186 1.532 1.786 2.689 3.914 3.471 6.38.784 2.468 1.175 5.147 1.175 8.04v33.638h-15.825V44.16c0-2.587-.595-4.603-1.786-6.049-1.191-1.446-2.944-2.17-5.257-2.17-1.736 0-3.37.375-4.9 1.123-1.532.749-2.996 1.753-4.391 3.012v37.722h-15.824zm110.562-26.952c0 4.152-.519 7.93-1.557 11.332-1.038 3.403-2.603 6.322-4.696 8.754-2.091 2.434-4.721 4.322-7.887 5.667-3.164 1.343-6.891 2.016-11.178 2.016-1.939 0-3.853-.102-5.742-.306a49.12 49.12 0 0 1-5.896-1.021l.92-10.055c.067-.885.416-1.6 1.046-2.144.63-.545 1.506-.817 2.63-.817.578 0 1.292.094 2.143.281.851.187 1.872.281 3.063.281 1.668 0 3.122-.23 4.364-.689a6.762 6.762 0 0 0 3.089-2.298c.817-1.071 1.429-2.475 1.838-4.211.408-1.736.613-3.879.613-6.432V3.426h17.252v47.421zm28.165 2.093v24.859H503.85V3.426h26.236c5.24 0 9.742.621 13.503 1.862 3.759 1.243 6.856 2.953 9.289 5.13 2.433 2.178 4.229 4.748 5.385 7.708 1.156 2.961 1.737 6.159 1.737 9.597 0 3.709-.597 7.112-1.788 10.209a20.499 20.499 0 0 1-5.461 7.963c-2.45 2.212-5.555 3.939-9.316 5.181-3.759 1.242-8.209 1.863-13.348 1.863h-8.985zm0-13.017h8.984c4.492 0 7.725-1.071 9.7-3.215 1.973-2.144 2.96-5.139 2.96-8.984 0-1.702-.256-3.25-.765-4.646a9.468 9.468 0 0 0-2.322-3.599c-1.038-1.003-2.349-1.778-3.931-2.322-1.582-.544-3.463-.817-5.641-.817h-8.984v23.583z" fill="#333"/></svg>