<svg xmlns="http://www.w3.org/2000/svg" viewBox="0 0 198 30"><path d="M52.247 16.069c.924-1.161 1.386-2.594 1.386-4.3 0-1.445-.273-2.653-.817-3.625a6.612 6.612 0 0 0-2.186-2.346c-.912-.592-1.943-1.013-3.092-1.262a16.65 16.65 0 0 0-3.536-.373h-9.595v25.161h5.935v-9.986h2.072l5.463 9.986h7.108L48.41 18.556c1.633-.497 2.913-1.326 3.837-2.487zm-5.031-2.63a2.723 2.723 0 0 1-1.053.924 4.918 4.918 0 0 1-1.428.444 9.81 9.81 0 0 1-1.536.124h-2.892V9.068h3.249c.452 0 .922.036 1.411.107.488.071.928.208 1.321.409.393.202.714.486.964.853.25.368.376.848.376 1.439-.001.639-.138 1.161-.412 1.563zm20.736-9.275L57.397 29.325h6.61l1.848-4.94h9.737l1.955 4.94h6.752L73.851 4.164h-5.899zm-.356 15.352l3.198-8.636 3.127 8.636h-6.325zm37.237 1.066h-.107L94.633 4.164h-6.93v25.161h5.9l-.143-16.454h.107l10.128 16.454h6.895V4.164h-5.9zm34.01-13.54c-1.221-1.137-2.672-2.013-4.354-2.63-1.682-.616-3.506-.924-5.473-.924s-3.785.308-5.455.924c-1.67.617-3.116 1.493-4.336 2.63-1.22 1.137-2.174 2.518-2.861 4.14-.687 1.623-1.03 3.441-1.03 5.455 0 1.99.343 3.809 1.03 5.455.687 1.647 1.64 3.056 2.861 4.229 1.22 1.173 2.666 2.079 4.336 2.719 1.67.64 3.488.959 5.455.959 1.966 0 3.79-.32 5.473-.959 1.682-.64 3.133-1.546 4.354-2.719 1.22-1.173 2.173-2.582 2.861-4.229.687-1.646 1.03-3.465 1.03-5.455 0-2.013-.343-3.832-1.03-5.455-.688-1.622-1.642-3.002-2.861-4.14zm-3.146 12.741c-.355.96-.853 1.783-1.493 2.47a6.922 6.922 0 0 1-2.274 1.617c-.877.391-1.848.586-2.914.586s-2.038-.196-2.914-.586a6.735 6.735 0 0 1-2.257-1.617c-.628-.687-1.119-1.51-1.475-2.47-.355-.959-.533-2.008-.533-3.145 0-1.089.171-2.108.515-3.056.343-.948.835-1.759 1.475-2.434a7.06 7.06 0 0 1 2.275-1.599c.876-.391 1.848-.586 2.914-.586s2.043.195 2.932.586a6.816 6.816 0 0 1 2.274 1.599c.627.675 1.12 1.487 1.475 2.434.355.948.533 1.967.533 3.056 0 1.137-.177 2.185-.533 3.145zm34.082-15.619h-7.604l-8.992 10.235h-.106V4.164h-5.935v25.161h5.935V17.739h.071l9.346 11.586h7.925L158.94 15.749zm27.191 7.019c-.687-1.622-1.641-3.003-2.861-4.14-1.22-1.137-2.671-2.013-4.353-2.63-1.683-.616-3.506-.924-5.473-.924s-3.785.308-5.455.924c-1.67.617-3.116 1.493-4.336 2.63-1.221 1.137-2.174 2.518-2.861 4.14-.688 1.623-1.03 3.441-1.03 5.455 0 1.99.343 3.809 1.03 5.455.687 1.647 1.64 3.056 2.861 4.229 1.22 1.173 2.665 2.079 4.336 2.719 1.67.64 3.488.959 5.455.959s3.79-.32 5.473-.959c1.682-.64 3.133-1.546 4.353-2.719 1.22-1.173 2.174-2.582 2.861-4.229.687-1.646 1.031-3.465 1.031-5.455-.001-2.014-.344-3.832-1.031-5.455zm-6.006 8.6c-.355.96-.853 1.783-1.492 2.47a6.922 6.922 0 0 1-2.274 1.617c-.877.391-1.848.586-2.914.586s-2.038-.196-2.914-.586a6.735 6.735 0 0 1-2.257-1.617c-.628-.687-1.12-1.51-1.475-2.47-.355-.959-.533-2.008-.533-3.145 0-1.089.171-2.108.515-3.056.343-.948.835-1.759 1.475-2.434a7.06 7.06 0 0 1 2.275-1.599c.876-.391 1.848-.586 2.914-.586s2.044.195 2.932.586a6.816 6.816 0 0 1 2.274 1.599c.627.675 1.12 1.487 1.475 2.434.355.948.533 1.967.533 3.056-.001 1.137-.179 2.185-.534 3.145zM23.455 24.491c.45-.355.9-.799 1.351-1.333a9.79 9.79 0 0 0 1.208-1.83c.355-.687.64-1.451.853-2.292.213-.841.32-1.747.32-2.719 0-1.895-.338-3.63-1.013-5.206a11.834 11.834 0 0 0-2.825-4.051c-1.208-1.125-2.642-2.002-4.3-2.63h.009C13.646 1.628 14.774 0 13.646 0c-1.126 0-.003 1.624-5.393 4.421l-.026.01c-1.67.628-3.116 1.51-4.336 2.647a12.071 12.071 0 0 0-2.861 4.087C.343 12.753 0 14.505 0 16.424c0 2.061.326 3.891.977 5.491.652 1.599 1.564 2.95 2.736 4.051 1.173 1.102 2.589 1.937 4.247 2.505 1.658.569 3.482.853 5.473.853H28.75v-4.833l-5.295.107v-.107zm-3.234-4.886a7.15 7.15 0 0 1-1.493 2.416 6.62 6.62 0 0 1-2.275 1.564 7.27 7.27 0 0 1-2.843.551c-1.043 0-1.996-.183-2.861-.551-.865-.367-1.611-.888-2.239-1.564s-1.114-1.48-1.457-2.416c-.343-.936-.515-1.972-.515-3.11 0-1.089.178-2.097.533-3.021a7.018 7.018 0 0 1 1.492-2.381 6.802 6.802 0 0 1 2.257-1.546c.864-.367 1.806-.551 2.825-.551 1.042 0 2.002.184 2.878.551a6.562 6.562 0 0 1 2.257 1.546 6.956 6.956 0 0 1 1.457 2.381c.343.924.515 1.932.515 3.021.002 1.138-.176 2.174-.531 3.11z" fill="#FFF"/></svg>