<svg xmlns="http://www.w3.org/2000/svg" viewBox="0 0 780 160"><path fill="#1A1A1A" d="M0 0h80v160H0z"/><path fill="#4D4D4D" d="M80 0h80v160H80z"/><path d="M23.876 22.812H63.98v13.085H38.173v64.336H23.876V22.812zm112.248 114.376H95.899v-13.085h25.807V59.766h14.418v77.422z" fill="#FFF"/><path d="M219.754 133.499c.679.09.995.135 1.625.135a67.5 67.5 0 0 0 2.304-.09c1.67-1.987 2.122-2.574 3.431-4.335-2.302-2.799-3.477-4.019-6.864-6.908l1.671-2.122c.993.949 1.219 1.129 1.942 1.852 2.482-3.747 4.018-6.592 4.47-8.352l2.799 1.264c-.316.451-.541.813-1.039 1.716-1.309 2.393-2.618 4.47-4.47 7.088a45.242 45.242 0 0 1 3.027 3.296c3.069-4.425 4.604-6.908 5.191-8.534l2.664 1.58c-.406.541-.677.948-1.309 1.852-3.611 5.463-6.005 8.804-8.353 11.422 3.387-.225 4.2-.27 7.315-.677-.677-1.49-.903-1.942-1.806-3.567l2.078-.813c1.535 2.573 2.753 5.238 3.972 8.579l-2.302 1.038c-.45-1.444-.587-1.851-1.039-3.025-.496.09-.903.135-1.127.135-.362.045-1.401.181-3.117.361v14.854c0 1.942.09 3.251.272 4.605h-3.297c.18-1.309.27-2.753.27-4.65v-14.538c-3.341.316-3.341.316-5.057.451-1.806.135-1.85.135-2.754.316l-.497-2.933zm5.555 5.598c-.813 6.637-1.309 8.714-2.981 12.777l-2.484-1.174c1.671-3.566 2.438-6.637 2.981-12.1l2.484.497zm10.249-.768c1.309 4.064 1.896 6.502 2.662 10.746l-2.618.858c-.587-4.469-1.219-7.405-2.302-10.881l2.258-.723zm7.629-14.266a35.112 35.112 0 0 1-4.604 7.043c-.723-.768-1.401-1.264-2.348-1.761 2.032-2.213 3.657-4.696 5.057-7.721 1.489-3.251 2.168-5.283 2.528-7.45l3.071.768c-.362.858-.362.858-1.175 3.115-.36.994-.723 1.897-1.309 3.341h11.288c1.806 0 2.708-.045 3.657-.18-.136 1.309-.136 1.309-.226 6.953-.044 7.088-.903 15.982-1.942 20.452-1.039 4.335-2.166 5.283-6.502 5.283-1.309 0-2.979-.09-4.784-.271-.136-1.219-.316-1.941-.769-3.115 2.484.406 4.2.587 6.005.587 2.122 0 2.618-.542 3.251-3.431 1.173-5.148 1.852-13.906 1.942-23.613h-13.14zm4.787 18.105c-2.076-5.057-3.251-7.179-6.186-11.198l2.348-1.354c2.935 4.019 4.244 6.321 6.412 11.017l-2.574 1.535zm21.035-16.525c-.542 2.753-1.039 4.514-2.122 7.223-.859-.632-1.491-.993-2.484-1.399 1.896-4.2 2.845-8.579 2.845-13.049 0-.496 0-.632-.044-1.174l2.889.451c-.09.768-.136 1.129-.27 2.393-.182 1.354-.226 1.987-.362 2.98h3.251v-5.643c0-1.535-.09-2.528-.316-3.747h3.387c-.226 1.173-.27 2.167-.27 3.747v5.643h2.076c1.399 0 2.032-.045 2.799-.225v2.935c-.947-.135-1.67-.181-2.799-.181h-2.076v10.069c2.032-.813 2.799-1.129 5.101-2.213v2.709c-2.302 1.084-3.025 1.399-5.101 2.257v11.694c0 1.625.09 3.206.27 4.74h-3.387c.226-1.444.316-2.89.316-4.74v-10.61c-4.108 1.49-6.366 2.348-6.772 2.528l-.903-3.206c1.852-.225 3.974-.812 7.675-2.122v-11.061h-3.703zm23.523-1.897c-1.175 4.38-2.168 6.998-3.883 9.978-2.122 3.657-4.786 6.682-8.263 9.346-.587-.903-1.219-1.535-2.122-2.213 3.703-2.528 6.095-5.057 8.217-8.714 1.535-2.618 2.348-4.65 3.341-8.398h-4.064c-1.443 2.799-2.753 4.831-4.874 7.36-.859-.903-1.265-1.219-2.304-1.807 2.574-2.799 4.02-4.921 5.555-8.398 1.083-2.393 1.806-4.605 2.212-7.043l3.161.678c-.316.722-.316.722-1.219 3.251a66.706 66.706 0 0 1-1.355 3.476h13.906c1.942 0 2.979-.045 3.837-.181-.18 1.219-.18 1.355-.316 6.367-.18 6.817-.542 13.139-1.039 17.383-.857 7.45-1.986 9.03-6.412 9.03-1.173 0-2.662-.135-5.101-.496-.136-1.219-.362-2.122-.813-3.161 2.572.633 4.244.903 5.913.903 1.942 0 2.62-.858 3.161-4.064.859-4.966 1.309-12.371 1.491-23.297h-1.988c-.903 4.47-1.309 6.005-2.302 8.894-1.762 4.967-4.064 9.211-7.044 12.959-2.438 3.115-4.65 5.102-8.758 8.127-.769-1.039-1.219-1.49-2.304-2.213 5.915-3.882 9.843-8.036 12.96-13.815 2.302-4.199 3.701-8.262 4.784-13.951h-4.377zm50.841 5.915c2.078 0 3.523-.09 4.696-.27v3.16c-1.355-.18-2.708-.27-4.696-.27h-12.281v7.133h14.403c2.122 0 3.567-.09 4.742-.271v3.206c-1.265-.18-2.71-.271-4.742-.271h-14.403v7.856c0 1.897.092 3.206.316 4.831h-3.657c.226-1.264.316-2.98.316-4.876v-7.811h-13.454c-2.032 0-3.477.091-4.74.271v-3.206c1.173.181 2.618.271 4.74.271h13.454v-7.133h-11.242c-1.942 0-3.385.09-4.696.27v-3.16c1.265.18 2.664.27 4.696.27h11.242v-11.062c0-1.896-.09-3.25-.316-4.83h3.657c-.224 1.625-.316 2.89-.316 4.83v11.062h12.281zm-27.224-13.726c3.161 3.567 4.876 5.959 7.224 10.114l-2.528 1.579c-2.62-4.695-4.38-7.088-7.451-10.248l2.755-1.445zm29.528 1.4c-3.251 5.193-4.832 7.36-7.677 10.43l-2.482-1.445c3.295-3.476 4.786-5.643 7.405-10.474l2.754 1.489zm40.991 7.72c1.671 0 2.754-.045 3.657-.18-.136 1.219-.18 2.212-.18 3.928v21.627c0 2.799-1.219 3.521-5.825 3.521-.947 0-2.438-.045-4.38-.135-.134-1.084-.27-1.716-.767-2.845 1.986.225 4.47.406 5.915.406.406 0 1.263-.09 1.443-.135.452-.136.679-.542.679-1.265v-6.862h-25.014c-.857 4.425-2.618 7.811-5.733 11.332-.677-.677-1.309-1.083-2.708-1.806 3.025-3.116 4.334-5.328 5.237-8.714.767-2.89 1.173-7.766 1.173-13.906 0-1.535 0-2.212-.09-3.341-1.76 1.445-2.662 2.077-4.47 3.206-.587-.994-.767-1.219-1.85-2.213 4.47-2.573 8.488-6.049 11.376-9.933 1.581-2.032 2.348-3.386 2.62-4.515l3.295.904c-.406.587-.542.722-.949 1.399-.496.723-.587.858-1.173 1.67h8.171c1.898 0 3.071-.045 4.2-.225l1.579 1.534c-.541.542-.541.588-1.76 2.213-1.175 1.579-2.484 3.16-3.703 4.334h9.257zm-12.551 0c1.489-1.489 3.205-3.612 4.334-5.373h-11.468c-1.806 2.258-2.979 3.522-4.966 5.328a41.64 41.64 0 0 0 2.348.045h9.752zm-.769 15.487v-5.464h-10.383a68.686 68.686 0 0 1-.406 5.464h10.789zm-10.293-13.003v5.011h10.293v-5.011h-10.293zm24.155 0h-11.108v5.011h11.108v-5.011zm0 7.539h-11.108v5.464h11.108v-5.464zm14.777-14.808c-1.852 0-3.205.09-4.516.27v-2.98c1.311.18 2.574.271 4.56.271h13.14v-.406c0-1.762-.046-2.709-.27-3.747h3.251c-.182 1.128-.272 2.212-.272 3.747v.406h14.313c1.986 0 3.161-.091 4.514-.271v2.98c-1.353-.18-2.662-.27-4.468-.27H417.88v3.341h10.882c1.762 0 2.618-.045 3.837-.181-.136 1.174-.18 1.897-.18 3.251v8.444c0 1.309.044 1.986.18 3.16-1.309-.135-2.258-.18-3.883-.18h-1.219v3.206h4.742c1.986 0 3.159-.091 4.514-.271v2.98c-1.309-.18-2.708-.271-4.47-.271h-4.786v7.36c0 2.483-1.083 3.206-4.784 3.206-1.175 0-1.717 0-4.38-.135-.136-1.129-.226-1.49-.859-2.845 1.581.27 3.567.406 5.373.406 1.625 0 1.942-.181 1.942-1.129v-6.863h-22.8c-1.762 0-3.115.091-4.516.271v-2.98c1.311.18 2.574.271 4.56.271h22.756v-3.206h-19.413c-1.625 0-2.53.045-3.839.18a24.17 24.17 0 0 0 .182-3.16v-8.444c0-1.264-.046-2.032-.182-3.251 1.175.136 2.078.181 3.839.181h9.797v-3.341h-13.186zm2.528 5.643v3.612h10.656v-3.612h-10.656zm0 5.824v4.109h10.656v-4.109h-10.656zm8.037 20.679c-2.394-2.618-4.064-4.109-6.638-5.914l2.122-1.716c2.935 2.032 4.606 3.431 6.728 5.598l-2.212 2.032zm5.327-22.891h11.739v-3.612h-11.739v3.612zm0 6.321h11.739v-4.109h-11.739v4.109zm44.499 12.461c0 2.393.046 3.838.226 4.921h-3.251c.18-1.173.226-2.528.226-4.921v-8.533h-12.371c-.679 6.817-1.852 10.519-4.876 14.809-.993-.949-1.445-1.264-2.618-1.942 1.942-2.528 2.935-4.56 3.657-7.631.993-4.154 1.399-10.746 1.399-21.898 0-4.56 0-5.418-.18-7.359 1.353.135 2.708.18 4.966.18h24.29c2.258 0 3.477-.045 4.786-.18-.136 1.219-.18 2.392-.18 4.424v30.296c0 2.845-1.039 3.521-5.419 3.521-1.445 0-3.701-.09-5.599-.225-.09-1.039-.27-1.807-.677-2.935 2.618.315 4.83.496 6.456.496 1.988 0 2.394-.226 2.394-1.355v-10.203h-13.23v8.535zm-14.763-19.188c-.046 1.264-.046 2.348-.046 2.98-.044 2.799-.044 2.98-.18 5.057h12.191v-8.036h-11.965zm11.964-10.474h-11.875v5.373l-.046 2.528h11.921v-7.901zm16.029 7.901v-7.901h-13.23v7.901h13.23zm-13.23 10.609h13.23v-8.036h-13.23v8.036zm39.614 2.258c-2.618 5.959-5.283 8.669-8.534 8.669-4.29 0-7.495-4.695-7.495-11.017 0-4.605 1.716-9.075 4.74-12.461 3.611-3.974 8.534-6.005 14.583-6.005 5.057 0 9.482 1.58 12.417 4.47 2.844 2.754 4.38 6.683 4.38 11.017 0 6.998-3.793 12.777-10.339 15.577-2.032.858-3.749 1.399-6.864 2.077-.45-1.49-.723-1.942-1.579-3.026 3.295-.541 5.417-1.128 7.539-2.122 4.966-2.257 7.993-7.088 7.993-12.641 0-5.148-2.62-9.301-7.18-11.333-1.67-.723-2.979-1.038-5.237-1.129-.676 6.276-2.392 13.183-4.424 17.924zm-5.554-15.757c-4.56 2.753-7.359 7.856-7.359 13.454 0 4.335 1.896 7.676 4.334 7.676 1.898 0 3.703-2.122 5.645-6.547 1.85-4.244 3.521-10.926 4.108-16.705-2.709.225-4.651.858-6.728 2.122zm61.264 27.496c-.182-.903-.588-2.528-1.175-4.334l-5.959-19.504c-.587-1.942-.993-3.477-1.309-5.193-.09.316-.18.587-.18.768-.316 1.174-.903 3.521-1.175 4.425l-5.913 19.504c-.769 2.438-.949 3.206-1.175 4.334h-3.477c-.134-.813-.134-.813-1.219-4.469l-7.132-24.697c-.723-2.483-1.129-3.657-1.852-5.148h4.56c.09 1.355.36 2.845.859 4.696l5.327 19.595c.316 1.084.587 2.348 1.219 5.102.452-1.806.993-3.928 1.355-5.147l6.049-19.821c.496-1.625.903-3.386 1.039-4.425h3.385c.226 1.355.542 2.709 1.085 4.425l6.049 19.776c.27.993.452 1.67 1.355 5.192l1.219-5.192 5.327-19.504c.452-1.762.767-3.387.859-4.696h4.514c-.677 1.535-1.039 2.619-1.762 5.148l-7.178 24.697c-.993 3.431-.993 3.476-1.173 4.469h-3.522zm18.329-11.649c.136 3.025.589 4.695 1.808 6.321 1.443 1.987 3.657 3.071 6.366 3.071 3.657 0 6.186-1.806 7.449-5.283l3.161 1.264c-.857 1.897-1.445 2.709-2.482 3.747-2.122 2.077-4.876 3.161-8.173 3.161-7.088 0-11.558-4.966-11.558-12.777 0-7.721 4.426-12.777 11.198-12.777 5.823 0 10.023 3.747 10.926 9.798.046.496.226 2.257.316 3.476h-19.011zm15.398-2.844c-.272-2.528-.949-4.154-2.394-5.553-1.399-1.354-3.161-2.032-5.327-2.032-2.754 0-5.057 1.399-6.412 3.928-.633 1.129-.859 1.942-1.129 3.657h15.262zm9.076 14.493c.224-1.716.316-3.025.316-5.192v-24.019c0-1.897-.092-3.342-.316-5.103h3.972c-.224 1.67-.314 2.98-.314 5.148v6.094c0 1.219-.046 2.032-.182 3.206 2.122-3.341 5.193-4.966 9.302-4.966 6.952 0 11.106 4.696 11.106 12.552 0 7.946-4.244 12.731-11.288 12.731-2.845 0-4.92-.722-6.998-2.437-.993-.768-1.399-1.265-2.122-2.348.09.858.136 1.219.136 1.806v2.528h-3.612zm12.505-21.943c-5.327 0-8.848 3.883-8.848 9.663 0 5.824 3.521 9.797 8.714 9.797 5.057 0 8.035-3.657 8.035-9.843 0-6.095-2.889-9.617-7.901-9.617zm50.745-7.856c-.316.496-.316.496-.949 2.799-2.392 8.669-5.823 14.583-11.332 19.595-4.2 3.793-8.081 6.14-14.177 8.489-.679-1.49-1.039-1.987-2.212-3.161 4.064-1.219 6.726-2.438 10.203-4.785 7.405-4.921 11.648-11.378 14.223-21.491h-22.982c-2.302 0-3.565.045-5.057.27v-3.657c1.716.271 2.618.316 5.103.316h22.214c1.806 0 2.122-.045 2.889-.361l2.077 1.986zm12.542 11.242c-1.896 0-3.025.045-4.062.226v-3.161c1.173.226 1.896.271 4.018.271h13.274l-.046-3.161c0-1.671-.044-2.393-.224-3.386h3.251c-.136.813-.182 1.445-.182 2.483v.723l.046 3.341h4.38c2.122 0 2.889-.045 4.064-.226v3.116c-1.085-.181-2.258-.226-4.064-.226h-4.336l.226 17.564c0 2.077.046 2.483.226 3.521h-3.431c.136-1.173.136-1.761.136-3.341v-.18l-.092-13.455c0-.09.092-1.219.182-2.528-.046.136-.046.136-.226.496-2.438 5.103-8.85 10.882-16.931 15.216-.677-1.128-.993-1.534-2.032-2.438 3.611-1.579 6.862-3.702 10.339-6.682 3.025-2.663 5.193-5.147 6.998-8.172h-11.514zm31.42 14.899c3.523-.135 8.94-1.534 13.14-3.476 8.714-3.882 14.763-10.519 18.42-20.092 1.039 1.4 1.489 1.807 2.754 2.664-3.611 7.856-7.811 13.139-13.77 17.247-4.65 3.16-9.3 5.011-16.841 6.727-1.219.271-1.579.361-2.708.723l-.995-3.793zm2.891-27.992c4.83 3.07 7.631 5.282 10.882 8.488l-2.348 2.799c-3.251-3.522-6.818-6.457-10.746-8.849l2.212-2.438zm41.397 33.32c.182-1.219.272-2.302.272-4.74v-28.038c0-2.393-.09-3.476-.272-4.605h3.883c-.18 1.174-.226 2.122-.226 4.695v8.444c6.954 2.483 12.191 4.966 20.092 9.527l-1.942 3.341c-4.244-2.98-10.473-6.321-16.841-8.94-.677-.27-.993-.451-1.399-.768l-.09.045c.136.904.18 1.535.18 2.664v13.59c0 2.528.046 3.521.226 4.785h-3.883zM259.961 53.281V81.56h-17.254V53.281L215.754 7.188h15.212c1.496 0 2.687.349 3.572 1.046.885.698 1.599 1.591 2.145 2.68l10.514 21.643 2.349 4.798a52.59 52.59 0 0 1 1.887 4.339 40.267 40.267 0 0 1 1.838-4.39 725.146 725.146 0 0 0 2.298-4.748l10.413-21.643c.204-.442.485-.884.843-1.327a7.4 7.4 0 0 1 1.225-1.199 5.894 5.894 0 0 1 1.582-.868 5.627 5.627 0 0 1 1.965-.331h15.314l-26.95 46.093zm58.211 28.279c-1.498 0-2.63-.204-3.395-.613s-1.404-1.258-1.914-2.552l-1.124-2.909a50.864 50.864 0 0 1-3.828 2.961 24.33 24.33 0 0 1-3.803 2.169 18.771 18.771 0 0 1-4.185 1.327c-1.481.289-3.124.434-4.927.434-2.416 0-4.61-.316-6.585-.947-1.973-.632-3.649-1.562-5.026-2.791-1.38-1.229-2.443-2.757-3.191-4.584-.75-1.826-1.124-3.935-1.124-6.324 0-1.878.477-3.807 1.429-5.788.952-1.98 2.603-3.78 4.952-5.402 2.347-1.622 5.513-2.979 9.493-4.071 3.982-1.092 9.001-1.639 15.06-1.639v-2.267c0-3.125-.639-5.383-1.914-6.774-1.277-1.391-3.089-2.087-5.437-2.087-1.872 0-3.404.204-4.595.613a20.625 20.625 0 0 0-3.191 1.379c-.935.51-1.845.969-2.731 1.378-.885.408-1.939.613-3.164.613-1.09 0-2.017-.263-2.782-.791a5.894 5.894 0 0 1-1.813-1.965l-2.859-4.951c3.198-2.825 6.746-4.926 10.644-6.305 3.895-1.378 8.072-2.067 12.531-2.067 3.198 0 6.082.519 8.652 1.556 2.568 1.039 4.748 2.485 6.534 4.339 1.786 1.855 3.156 4.058 4.108 6.61s1.429 5.343 1.429 8.371V81.56h-7.244zm-18.173-9.647c2.042 0 3.828-.358 5.358-1.072 1.532-.715 3.08-1.871 4.647-3.471v-7.248c-3.166 0-5.769.207-7.81.618-2.042.411-3.658.926-4.849 1.545-1.193.618-2.017 1.321-2.477 2.111a5.039 5.039 0 0 0-.689 2.573c0 1.82.494 3.099 1.481 3.837.987.738 2.433 1.107 4.339 1.107zM350.43 5.146v42.827h2.347c.987 0 1.744-.135 2.273-.408.527-.272 1.029-.765 1.506-1.48l10.005-14.905c.578-.885 1.267-1.531 2.067-1.94s1.813-.613 3.038-.613h14.497l-13.68 18.835a14.856 14.856 0 0 1-2.118 2.348 17.561 17.561 0 0 1-2.477 1.838c1.532 1.157 2.859 2.689 3.982 4.594l14.905 25.319h-14.293c-1.193 0-2.221-.196-3.089-.587-.866-.391-1.574-1.08-2.118-2.068L357.27 60.173c-.477-.851-.969-1.404-1.481-1.659-.51-.256-1.275-.383-2.296-.383h-3.063V81.56h-15.825V5.146h15.825zm55.608 23.481v33.588c0 2.62.595 4.645 1.786 6.074 1.191 1.429 2.943 2.144 5.257 2.144 1.737 0 3.36-.357 4.876-1.071 1.513-.715 2.986-1.718 4.416-3.012V28.627h15.823V81.56h-9.801c-1.973 0-3.267-.884-3.879-2.654l-.969-3.063a30.403 30.403 0 0 1-3.166 2.68c-1.088.8-2.254 1.48-3.496 2.042a20.975 20.975 0 0 1-4.007 1.327c-1.429.322-2.994.485-4.696.485-2.893 0-5.454-.503-7.683-1.506-2.229-1.004-4.108-2.407-5.641-4.211-1.53-1.803-2.687-3.93-3.471-6.38-.782-2.45-1.174-5.139-1.174-8.065V28.627h15.825zM535.079 81.56h-17.355V50.116h-30.219V81.56H470.15V7.188h17.355v31.086h30.219V7.188h17.355V81.56zm46.615 0c-1.498 0-2.628-.204-3.395-.613-.765-.408-1.403-1.258-1.914-2.552l-1.122-2.909a51.284 51.284 0 0 1-3.83 2.961 24.311 24.311 0 0 1-3.801 2.169 18.755 18.755 0 0 1-4.187 1.327c-1.481.289-3.122.434-4.925.434-2.418 0-4.612-.316-6.585-.947-1.973-.632-3.651-1.562-5.028-2.791-1.378-1.229-2.443-2.757-3.191-4.584s-1.122-3.935-1.122-6.324c0-1.878.475-3.807 1.429-5.788.952-1.98 2.603-3.78 4.95-5.402 2.349-1.622 5.513-2.979 9.495-4.071 3.981-1.092 9.001-1.639 15.058-1.639v-2.267c0-3.125-.637-5.383-1.914-6.774s-3.088-2.087-5.437-2.087c-1.872 0-3.402.204-4.593.613a20.458 20.458 0 0 0-3.191 1.379c-.937.51-1.847.969-2.731 1.378-.885.408-1.941.613-3.166.613-1.09 0-2.015-.263-2.782-.791a5.867 5.867 0 0 1-1.811-1.965l-2.859-4.951c3.198-2.825 6.746-4.926 10.642-6.305 3.897-1.378 8.074-2.067 12.531-2.067 3.198 0 6.083.519 8.652 1.556 2.57 1.039 4.748 2.485 6.534 4.339 1.788 1.855 3.156 4.058 4.11 6.61.952 2.552 1.429 5.343 1.429 8.371V81.56h-7.246zm-18.172-9.647c2.042 0 3.828-.358 5.36-1.072 1.53-.715 3.08-1.871 4.645-3.471v-7.248c-3.164 0-5.769.207-7.81.618-2.042.411-3.658.926-4.849 1.545s-2.015 1.321-2.475 2.111a5.02 5.02 0 0 0-.689 2.573c0 1.82.492 3.099 1.479 3.837.988.738 2.432 1.107 4.339 1.107zm34.608 9.647V28.627h9.801c.987 0 1.811.221 2.475.663.664.443 1.132 1.106 1.404 1.991l.918 3.063a38.127 38.127 0 0 1 3.166-2.654 18.465 18.465 0 0 1 3.496-2.068 20.7 20.7 0 0 1 4.032-1.327c1.446-.323 3.021-.485 4.723-.485 2.891 0 5.452.502 7.683 1.506 2.227 1.004 4.108 2.399 5.639 4.186 1.532 1.786 2.689 3.914 3.471 6.38.784 2.468 1.175 5.147 1.175 8.04V81.56h-15.825V47.922c0-2.587-.595-4.603-1.786-6.049s-2.944-2.17-5.257-2.17c-1.737 0-3.37.375-4.9 1.123-1.532.749-2.996 1.753-4.391 3.012V81.56H598.13zm110.561-26.952c0 4.152-.519 7.93-1.557 11.332-1.038 3.403-2.603 6.322-4.696 8.754-2.091 2.434-4.721 4.322-7.887 5.667-3.164 1.343-6.891 2.016-11.178 2.016-1.939 0-3.853-.102-5.742-.306a49.12 49.12 0 0 1-5.896-1.021l.92-10.055c.067-.885.416-1.6 1.046-2.144.63-.545 1.506-.817 2.63-.817.578 0 1.292.094 2.143.281.851.187 1.872.281 3.063.281 1.668 0 3.122-.23 4.364-.689a6.762 6.762 0 0 0 3.089-2.298c.817-1.071 1.429-2.475 1.838-4.211.408-1.736.613-3.879.613-6.432V7.188h17.252v47.42zm28.166 2.094V81.56h-17.252V7.188h26.236c5.24 0 9.742.621 13.503 1.862 3.759 1.243 6.856 2.953 9.289 5.13 2.433 2.178 4.229 4.748 5.385 7.708 1.156 2.961 1.737 6.159 1.737 9.597 0 3.709-.597 7.112-1.788 10.209a20.499 20.499 0 0 1-5.461 7.963c-2.45 2.212-5.555 3.939-9.316 5.181-3.759 1.242-8.209 1.863-13.348 1.863h-8.985zm0-13.017h8.984c4.492 0 7.725-1.071 9.7-3.215 1.973-2.144 2.96-5.139 2.96-8.984 0-1.702-.256-3.25-.765-4.646a9.468 9.468 0 0 0-2.322-3.599c-1.038-1.003-2.349-1.778-3.931-2.322-1.582-.544-3.463-.817-5.641-.817h-8.984v23.583z" fill="#333"/></svg>