<svg viewBox="0 0 560 80" xmlns="http://www.w3.org/2000/svg"><g><path d="m44.21 49.52v28.28h-17.21v-28.28l-27-46.09h15.21a5.64 5.64 0 0 1 3.57 1 7.82 7.82 0 0 1 2.15 2.68l10.51 21.69q1.29 2.6 2.35 4.79c.72 1.47 1.35 2.91 1.89 4.34a39.82 39.82 0 0 1 1.84-4.39q1.06-2.19 2.3-4.74l10.41-21.65a6.36 6.36 0 0 1 .84-1.33 7.3 7.3 0 0 1 1.23-1.19 5.74 5.74 0 0 1 1.58-.87 5.6 5.6 0 0 1 2-.33h15.28z"/><path d="m102.42 77.8a7.56 7.56 0 0 1 -3.4-.61 4.7 4.7 0 0 1 -1.91-2.56l-1.11-2.91c-1.32 1.13-2.6 2.11-3.82 3a24.12 24.12 0 0 1 -3.81 2.16 18.55 18.55 0 0 1 -4.18 1.33 25.75 25.75 0 0 1 -4.93.44 21.56 21.56 0 0 1 -6.58-1 13.66 13.66 0 0 1 -5-2.79 12.27 12.27 0 0 1 -3.19-4.59 16.5 16.5 0 0 1 -1.17-6.27 13.33 13.33 0 0 1 1.42-5.79 14.31 14.31 0 0 1 5-5.4 31.29 31.29 0 0 1 9.49-4.07 58.16 58.16 0 0 1 15.06-1.64v-2.3q0-4.68-1.91-6.77a7 7 0 0 0 -5.44-2.09 14.76 14.76 0 0 0 -4.6.61 21.08 21.08 0 0 0 -3.19 1.38q-1.39.76-2.73 1.38a7.45 7.45 0 0 1 -3.16.61 4.74 4.74 0 0 1 -2.78-.79 6 6 0 0 1 -1.82-2l-2.85-5a32 32 0 0 1 10.64-6.31 37.22 37.22 0 0 1 12.53-2.07 22.87 22.87 0 0 1 8.65 1.56 18.76 18.76 0 0 1 6.54 4.34 19.14 19.14 0 0 1 4.11 6.61 23.8 23.8 0 0 1 1.42 8.37v33.17zm-18.17-9.65a12.58 12.58 0 0 0 5.35-1.07 16.37 16.37 0 0 0 4.65-3.47v-7.25a40.72 40.72 0 0 0 -7.81.62 18.73 18.73 0 0 0 -4.85 1.54 5.92 5.92 0 0 0 -2.48 2.11 5.14 5.14 0 0 0 -.69 2.58c0 1.82.5 3.1 1.49 3.83a7.14 7.14 0 0 0 4.34 1.11z"/><path d="m134.68 1.38v42.83h2.32a5 5 0 0 0 2.28-.41 4.27 4.27 0 0 0 1.5-1.48l10-14.9a5.35 5.35 0 0 1 2.06-1.94 6.66 6.66 0 0 1 3-.61h14.5l-13.61 18.83a15.05 15.05 0 0 1 -2.12 2.35 18.1 18.1 0 0 1 -2.48 1.84 15.53 15.53 0 0 1 4 4.59l14.87 25.32h-14.27a7.47 7.47 0 0 1 -3.09-.59 4.55 4.55 0 0 1 -2.12-2.07l-10-18.73a3.92 3.92 0 0 0 -1.52-1.66 5.38 5.38 0 0 0 -2.29-.38h-3.06v23.43h-15.8v-76.42z"/><path d="m190.28 24.87v33.58a9.26 9.26 0 0 0 1.79 6.08 6.44 6.44 0 0 0 5.26 2.14 11.33 11.33 0 0 0 4.87-1.07 18.34 18.34 0 0 0 4.42-3v-37.73h15.82v52.93h-9.8a3.73 3.73 0 0 1 -3.88-2.66l-1-3.06a30.12 30.12 0 0 1 -3.16 2.68 19.39 19.39 0 0 1 -3.5 2 20.73 20.73 0 0 1 -4 1.33 21.44 21.44 0 0 1 -4.69.49 18.61 18.61 0 0 1 -7.69-1.51 16 16 0 0 1 -5.64-4.21 18.47 18.47 0 0 1 -3.47-6.38 26.49 26.49 0 0 1 -1.17-8.07v-33.54z"/><path d="m319.33 77.8h-17.33v-31.45h-30.25v31.45h-17.35v-74.37h17.35v31.08h30.25v-31.08h17.36z"/><path d="m365.94 77.8a7.56 7.56 0 0 1 -3.4-.61 4.7 4.7 0 0 1 -1.91-2.56l-1.12-2.91c-1.33 1.13-2.61 2.11-3.83 3a24 24 0 0 1 -3.8 2.16 18.63 18.63 0 0 1 -4.19 1.33 25.64 25.64 0 0 1 -4.92.44 21.58 21.58 0 0 1 -6.59-1 13.74 13.74 0 0 1 -5-2.79 12.27 12.27 0 0 1 -3.18-4.57 16.5 16.5 0 0 1 -1.16-6.29 13.21 13.21 0 0 1 1.43-5.79 14.2 14.2 0 0 1 5-5.4 31.4 31.4 0 0 1 9.49-4.07 58.21 58.21 0 0 1 15.06-1.64v-2.3q0-4.68-1.91-6.77a7 7 0 0 0 -5.44-2.09 14.65 14.65 0 0 0 -4.59.61 20.65 20.65 0 0 0 -3.19 1.38q-1.41.76-2.73 1.38a7.5 7.5 0 0 1 -3.17.61 4.77 4.77 0 0 1 -2.78-.79 5.83 5.83 0 0 1 -1.81-2l-2.86-5a32.19 32.19 0 0 1 10.64-6.31 37.31 37.31 0 0 1 12.53-2.07 22.92 22.92 0 0 1 8.66 1.56 18.4 18.4 0 0 1 10.64 11 23.8 23.8 0 0 1 1.43 8.37v33.12zm-18.17-9.65a12.63 12.63 0 0 0 5.36-1.07 16.34 16.34 0 0 0 4.64-3.47v-7.25a40.79 40.79 0 0 0 -7.77.64 18.73 18.73 0 0 0 -4.85 1.54 5.88 5.88 0 0 0 -2.47 2.11 5 5 0 0 0 -.69 2.58c0 1.82.49 3.1 1.48 3.83a7.16 7.16 0 0 0 4.3 1.09z"/><path d="m382.38 77.8v-52.93h9.8a4.37 4.37 0 0 1 2.47.66 3.58 3.58 0 0 1 1.41 2l.91 3.06a37.39 37.39 0 0 1 3.17-2.65 18.34 18.34 0 0 1 3.49-2.07 21.5 21.5 0 0 1 4-1.33 21.81 21.81 0 0 1 4.72-.48 18.6 18.6 0 0 1 7.68 1.5 16 16 0 0 1 5.64 4.19 18 18 0 0 1 3.47 6.38 26.26 26.26 0 0 1 1.18 8v33.67h-15.79v-33.64a9.26 9.26 0 0 0 -1.78-6 6.42 6.42 0 0 0 -5.26-2.17 11.11 11.11 0 0 0 -4.9 1.12 19 19 0 0 0 -4.39 3v37.69z"/><path d="m492.94 50.85a38.65 38.65 0 0 1 -1.56 11.33 23.85 23.85 0 0 1 -4.7 8.75 21 21 0 0 1 -7.88 5.67 28.54 28.54 0 0 1 -11.18 2 54.45 54.45 0 0 1 -5.74-.31 47.75 47.75 0 0 1 -5.9-1l.92-10.06a3 3 0 0 1 1.1-2.14 3.84 3.84 0 0 1 2.62-.82 10.83 10.83 0 0 1 2.15.28 14.25 14.25 0 0 0 3.06.28 12.51 12.51 0 0 0 4.36-.69 6.7 6.7 0 0 0 3.09-2.29 11.06 11.06 0 0 0 1.84-4.21 28.59 28.59 0 0 0 .61-6.44v-47.77h17.26z"/><path d="m521.1 52.94v24.86h-17.25v-74.37h26.24a43.33 43.33 0 0 1 13.5 1.86 25.82 25.82 0 0 1 9.29 5.13 20 20 0 0 1 5.38 7.71 26.06 26.06 0 0 1 1.74 9.59 28.22 28.22 0 0 1 -1.79 10.21 20.53 20.53 0 0 1 -5.46 8 25.82 25.82 0 0 1 -9.32 5.18 42.66 42.66 0 0 1 -13.34 1.86zm0-13h9q6.74 0 9.7-3.21c2-2.15 3-5.14 3-9a13.4 13.4 0 0 0 -.77-4.64 9.36 9.36 0 0 0 -2.32-3.6 10.46 10.46 0 0 0 -3.93-2.32 17.25 17.25 0 0 0 -5.64-.82h-9z"/></g></svg>