<svg viewBox="0 0 460 520" xmlns="http://www.w3.org/2000/svg"><path d="m357 441.84c-7.65-1.91-15.43-3.28-24.07-2 0-2.43.15-4.74 0-7-.57-7-1.92-13.71-7.55-18.68-8.35-7.38-18.3-4.94-21.95 5.52a35.51 35.51 0 0 0 -2.12 12.08c.13 13 0 26.09.35 39.13.09 3.62-1 4.38-4.38 4.21-5.91-.31-11.89-.65-17.72.9-6.58 1.75-10.5 6.16-11.47 12.76-.87 5.91 1.85 10.53 6.61 14a33.27 33.27 0 0 0 8.42 4c9.19 3.29 18.75 3.32 28.28 3.24 10.5-.08 21.11.93 31.45-1.4 9.88-2.24 19.09-6.13 22.91-16.58a58.35 58.35 0 0 0 -.22-41c-1.54-4.22-4.02-8.02-8.54-9.18zm-2.17 44.33c-2.41 7.76-9.44 9.46-15.94 10.34-17.23 2.32-34.52.84-51.69-1.11-3-.34-8.09-.77-7.5-5.3.52-4 5.14-2.92 8.22-3.19 5.9-.52 11.76 1.58 17.72.15s8.12-3.52 8.24-9.78c.15-7.91 0-15.82 0-23.73-.15-9.35-1.86-18.77.16-28.08.28-1.29.25-2.89 1.85-3s2.06 1.39 2.72 2.52c2.18 3.78 1.48 8 1.78 12.05s-.22 8.24.62 12.33c1.14 5.61 5.52 8.08 10.1 4.93 7-4.8 14-1.42 21-1 1.63.09 2.06 2.09 2.46 3.4a49.09 49.09 0 0 1 .27 29.47z"/><path d="m187.16 413.36a33.3 33.3 0 0 0 -8.42-4c-9.19-3.29-18.75-3.32-28.28-3.24-10.5.09-21.11-.93-31.45 1.41-9.88 2.23-19.09 6.12-22.91 16.58a58.4 58.4 0 0 0 .22 41c1.48 4.07 4 7.9 8.52 9 7.65 1.9 15.43 3.27 24.07 2 0 2.44-.16 4.75 0 7 .57 7 1.93 13.71 7.55 18.68 8.35 7.38 18.31 4.93 22-5.53a35.31 35.31 0 0 0 2.12-12.08c-.12-13 0-26.09-.35-39.13-.09-3.63 1-4.38 4.39-4.2 5.91.3 11.89.65 17.72-.91 6.57-1.74 10.49-6.16 11.46-12.76.84-5.78-1.88-10.39-6.64-13.82zm-4.78 12.74c-.31 1.86-1.77 2-3.25 2.41-3.93 1-7.87.56-11.81.38-1.48-.07-2.94-.38-4.42-.45-11.86-.53-15 2.52-15 14.41q0 9.64 0 19.27c.11 9.35 1.91 18.78-.13 28.09-.31 1.4-.09 3.31-2 3.34-1.68 0-2.27-1.77-2.86-3.07-2-4.35-1.2-9.06-1.54-13.62-.27-3.61-.1-7.28-.72-10.83-.85-4.95-5.6-7.34-9.64-4.44-6.92 5-14 1.57-21 1.32-1.75-.07-2.22-1.91-2.65-3.22a47.55 47.55 0 0 1 -.14-30.48c2.45-7.3 9.54-8.49 15.9-9.8 10.43-2.16 21-.56 31.55-.59 6.06 0 12.13 1 18.19 1.48a19.56 19.56 0 0 1 7 2c1.55.78 2.86 1.77 2.52 3.8z"/><path d="m268.06 239.33c-8.74 13.25-8.65 37.85.19 50.95 6.76 10 17.47 9.89 24.06-.29 4.92-7.62 6.24-16.18 6.54-25-.2-9-1.47-17.75-6.46-25.53-6.69-10.46-17.52-10.46-24.33-.13z"/><path d="m215.38 299.65c-6.9 9.1-6.9 25.8 0 35 5.62 7.51 14.9 7.48 20.4-.15 3.71-5.14 4.88-11.09 5.08-17.55-.24-5.94-1.32-11.9-5-17.07-5.55-7.61-14.86-7.7-20.48-.23zm12.25 28.82c-1.41 2-2.73 1.94-4.28 0-3.89-4.76-3.9-17.87 0-22.65 1.85-2.29 3.21-1.69 4.58.4 2.17 3.32 2.57 7.08 2.86 10.88-.31 4.04-.79 7.97-3.16 11.37z"/><path d="m233.94 94.55c-2.57 1.78-4.85 5.07-7.51 5.36-3.14.34-4.86-3.91-7.52-5.8-7.82-5.56-18.74-4.3-24.53 3-5.58 7-4.08 17.76 3.28 23.9 2.28 1.9 4.29 4.13 6.62 5.94 3.33 2.58 6 5.31 4.5 9.23-.21 12.2 6.07 20.19 15.92 21 8.77.72 18.05-6.13 17.73-15.49-.31-9.16 4.19-13.63 10.68-17.79a19.75 19.75 0 0 0 2.35-1.83c7.07-6.31 8.37-17.25 2.88-24.16a17.81 17.81 0 0 0 -24.4-3.36zm12.32 18.92c-4.24 3.11-8.18 6.67-12.91 9.09-2.89 1.48-3.75 3.57-3.18 6.83a41.17 41.17 0 0 1 .43 9.86c-.21 3-1.59 5.69-5.19 5.35-3.17-.3-4.25-2.77-4.32-5.7-.05-2 0-4 0-6.59 1.43-5.13-1.25-9-5.71-12.29-3.29-2.44-6.06-5.56-9.25-8.15-2.53-2.05-4-4.33-1.67-7.11s5.08-2.18 7.51-.21c3.84 3.1 7.54 6.39 11.2 9.7 1.5 1.36 2.47 1.69 4.49.4a145.79 145.79 0 0 0 12.32-9c2.77-2.21 5.7-3.32 8.21-.14s.98 5.82-1.93 7.96z"/><path d="m161.1 238.22c-8.78 13.17-8.77 37.75 0 51 6.71 10.09 17.46 10.06 24.05-.05 5.06-7.75 6.37-16.47 6.6-24.39 0-10.93-2.26-19.74-6.35-26.14-6.67-10.53-17.4-10.64-24.3-.42z"/><path d="m448.49 191.69c-10.47-29.26-27.76-53.6-52.83-72.13-22.53-16.65-47-30-72-42.54-30-15-57.45-33.44-79.92-58.69a46.54 46.54 0 0 0 -4.62-4.48c-6-5.09-12.35-5.16-18.24 0a89.55 89.55 0 0 0 -7.38 7.33c-18.26 20.09-40 35.55-63.65 48.67-19.08 10.61-39.06 19.54-57.64 31.09-23 14.32-45.27 29.5-61 52.36-14.99 21.55-24.43 45.24-27.41 71.3a142.9 142.9 0 0 0 8 65.54c6.81 18.86 16.66 36.09 31.8 49.79 18.36 16.62 40.48 25.3 64.33 30 19.8 3.87 39.93 4.58 60 4.82 20.63.25 41.26-.87 59.15 0 35.58-1 68.45 1.33 101.26-1.58 18.58-1.65 36.77-5.13 54-12.26 47-19.43 67.23-58 73.64-105.59 2.96-21.6-.11-43-7.49-63.63zm-116.49 160.31c-2.4 1.78-5.15 2.19-7.94 2.27-25.56.74-51.09 3-76.68.54-5.89-.56-11.88-.08-17.82-.08-11.23 0-22.44.4-33.65.94-22.13 1.06-44.19-.68-66.25-2.18a10.47 10.47 0 0 1 -5.9-2.24c-21.36-16.61-32.74-38.43-32.47-65.49.2-20.13 9.21-37.32 21.29-52.92 17.53-22.64 41.63-35.11 68.34-43.29 17.2-5.27 34.82-9.51 52.81-7.86 39.76 3.66 76.9 14.72 105.18 45 16.3 17.49 27.42 38.1 26.59 62.79-.83 25.98-12.5 46.88-33.5 62.52zm102.23-85a118.07 118.07 0 0 1 -19.08 44.41c-12.78 18-30.14 29.47-51.29 35.4-3.44 1-6.88 2-11.39 3.26a95.69 95.69 0 0 0 16.94-25.39c12.81-28.89 10.27-56.82-5.2-84-18.49-32.53-47.5-51-82.19-62-20.51-6.51-41.49-11.12-63-8.9-40.62 4.22-78.28 16.28-107.81 46.22-15 15.18-25.75 33.24-30 54.54-5.77 28.92 2.09 54.23 20.78 76.56-1.64 2.49-3.26-.73-4.89 0-22.73-5.92-41-18.32-54-38-13.94-21.13-21.2-44.78-20.53-69.84 1-36.87 15.12-68.73 42.4-94 20.49-18.95 44.85-32.21 69.54-44.76 22-11.18 43.54-23 63.1-38.24a193.82 193.82 0 0 0 29.86-28.1c1.86-2.2 2.8-2.44 4.83-.1 21.69 25.08 48.6 43.31 77.75 58.42 25.54 13.25 51.13 26.34 74.23 43.7 21.53 16.18 36.4 37.22 45.54 62.44 3.93 10.86 5.91 22.14 7.33 33.55 1.47 11.83-.52 23.43-2.92 34.83z"/></svg>